<svg width="951" height="630" viewBox="0 0 951 630" fill="none" xmlns="http://www.w3.org/2000/svg">
<rect x="3" y="3" width="945" height="624" fill="#003DE3" stroke="white" stroke-width="6"/>
<path d="M201.624 87.8V91.664H194.344V127H190.144V91.664H182.92V87.8H201.624ZM214.244 119.216H218.444V119.608C218.444 120.28 218.332 121.083 218.108 122.016C217.921 122.912 217.548 123.771 216.988 124.592C216.428 125.376 215.644 126.048 214.636 126.608C213.628 127.168 212.321 127.448 210.716 127.448C208.961 127.448 207.561 127.149 206.516 126.552C205.47 125.917 204.649 125.171 204.052 124.312C203.454 123.453 203.062 122.576 202.876 121.68C202.689 120.747 202.596 119.981 202.596 119.384V106.504C202.596 105.944 202.689 105.235 202.876 104.376C203.062 103.517 203.436 102.677 203.996 101.856C204.556 100.997 205.34 100.269 206.348 99.672C207.393 99.0747 208.756 98.776 210.436 98.776C212.078 98.776 213.422 99.0747 214.468 99.672C215.55 100.269 216.39 100.997 216.988 101.856C217.585 102.677 217.996 103.555 218.22 104.488C218.444 105.384 218.556 106.131 218.556 106.728V114.68H206.796V119.104C206.796 120.597 207.113 121.68 207.748 122.352C208.42 123.024 209.409 123.36 210.716 123.36C211.948 123.36 212.844 123.024 213.404 122.352C213.964 121.643 214.244 120.709 214.244 119.552V119.216ZM214.356 111.544V106.784C214.356 106.336 214.3 105.888 214.188 105.44C214.076 104.955 213.87 104.525 213.572 104.152C213.273 103.779 212.881 103.48 212.396 103.256C211.91 102.995 211.313 102.864 210.604 102.864C209.857 102.864 209.241 102.995 208.756 103.256C208.27 103.517 207.878 103.853 207.58 104.264C207.281 104.675 207.076 105.123 206.964 105.608C206.852 106.093 206.796 106.56 206.796 107.008V111.544H214.356ZM225.077 99.224H240.757V127H236.557V102.752H229.277V127H225.077V99.224ZM259.142 119.216H263.342V119.608C263.342 120.28 263.23 121.083 263.006 122.016C262.819 122.912 262.446 123.771 261.886 124.592C261.326 125.376 260.542 126.048 259.534 126.608C258.526 127.168 257.219 127.448 255.614 127.448C253.859 127.448 252.459 127.149 251.414 126.552C250.369 125.917 249.547 125.171 248.95 124.312C248.353 123.453 247.961 122.576 247.774 121.68C247.587 120.747 247.494 119.981 247.494 119.384V106.504C247.494 105.944 247.587 105.235 247.774 104.376C247.961 103.517 248.334 102.677 248.894 101.856C249.454 100.997 250.238 100.269 251.246 99.672C252.291 99.0747 253.654 98.776 255.334 98.776C256.977 98.776 258.321 99.0747 259.366 99.672C260.449 100.269 261.289 100.997 261.886 101.856C262.483 102.677 262.894 103.555 263.118 104.488C263.342 105.384 263.454 106.131 263.454 106.728V114.68H251.694V119.104C251.694 120.597 252.011 121.68 252.646 122.352C253.318 123.024 254.307 123.36 255.614 123.36C256.846 123.36 257.742 123.024 258.302 122.352C258.862 121.643 259.142 120.709 259.142 119.552V119.216ZM259.254 111.544V106.784C259.254 106.336 259.198 105.888 259.086 105.44C258.974 104.955 258.769 104.525 258.47 104.152C258.171 103.779 257.779 103.48 257.294 103.256C256.809 102.995 256.211 102.864 255.502 102.864C254.755 102.864 254.139 102.995 253.654 103.256C253.169 103.517 252.777 103.853 252.478 104.264C252.179 104.675 251.974 105.123 251.862 105.608C251.75 106.093 251.694 106.56 251.694 107.008V111.544H259.254ZM269.976 99.224H274.176V101.968C275.072 100.773 276.043 99.952 277.088 99.504C278.171 99.0187 279.197 98.776 280.168 98.776C281.4 98.776 282.389 98.9813 283.136 99.392C283.92 99.8027 284.517 100.344 284.928 101.016C285.339 101.651 285.619 102.341 285.768 103.088C285.917 103.835 285.992 104.544 285.992 105.216V121.008C285.992 121.68 285.917 122.389 285.768 123.136C285.619 123.883 285.339 124.592 284.928 125.264C284.517 125.899 283.92 126.421 283.136 126.832C282.389 127.243 281.4 127.448 280.168 127.448C279.197 127.448 278.171 127.224 277.088 126.776C276.043 126.291 275.072 125.451 274.176 124.256V138.424H269.976V99.224ZM278.264 123.36C278.936 123.36 279.496 123.248 279.944 123.024C280.392 122.763 280.747 122.427 281.008 122.016C281.307 121.605 281.512 121.139 281.624 120.616C281.736 120.093 281.792 119.571 281.792 119.048V107.176C281.792 106.653 281.736 106.131 281.624 105.608C281.512 105.085 281.307 104.619 281.008 104.208C280.747 103.797 280.392 103.48 279.944 103.256C279.496 102.995 278.936 102.864 278.264 102.864C277.405 102.864 276.715 103.051 276.192 103.424C275.669 103.797 275.259 104.245 274.96 104.768C274.661 105.291 274.456 105.851 274.344 106.448C274.232 107.008 274.176 107.512 274.176 107.96V118.264C274.176 118.712 274.232 119.235 274.344 119.832C274.456 120.392 274.661 120.933 274.96 121.456C275.259 121.979 275.669 122.427 276.192 122.8C276.715 123.173 277.405 123.36 278.264 123.36ZM297.145 99.224V110.312H300.897C301.681 110.312 302.521 110.387 303.417 110.536C304.35 110.648 305.209 110.928 305.993 111.376C306.777 111.824 307.43 112.477 307.953 113.336C308.475 114.195 308.737 115.352 308.737 116.808V120.168C308.737 122.632 308.009 124.387 306.553 125.432C305.134 126.477 303.249 127 300.897 127H292.945V99.224H297.145ZM297.145 123.472H300.561C301.009 123.472 301.457 123.416 301.905 123.304C302.39 123.192 302.819 123.005 303.193 122.744C303.603 122.445 303.921 122.072 304.145 121.624C304.406 121.139 304.537 120.541 304.537 119.832V117.536C304.537 116.155 304.107 115.203 303.249 114.68C302.427 114.12 301.531 113.84 300.561 113.84H297.145V123.472ZM327.398 99.224H343.078V127H338.878V102.752H331.598V127H327.398V99.224ZM350.038 99.224H354.238V101.968C355.134 100.773 356.105 99.952 357.15 99.504C358.233 99.0187 359.26 98.776 360.23 98.776C361.462 98.776 362.452 98.9813 363.198 99.392C363.982 99.8027 364.58 100.344 364.99 101.016C365.401 101.651 365.681 102.341 365.83 103.088C365.98 103.835 366.054 104.544 366.054 105.216V121.008C366.054 121.68 365.98 122.389 365.83 123.136C365.681 123.883 365.401 124.592 364.99 125.264C364.58 125.899 363.982 126.421 363.198 126.832C362.452 127.243 361.462 127.448 360.23 127.448C359.26 127.448 358.233 127.224 357.15 126.776C356.105 126.291 355.134 125.451 354.238 124.256V138.424H350.038V99.224ZM358.326 123.36C358.998 123.36 359.558 123.248 360.006 123.024C360.454 122.763 360.809 122.427 361.07 122.016C361.369 121.605 361.574 121.139 361.686 120.616C361.798 120.093 361.854 119.571 361.854 119.048V107.176C361.854 106.653 361.798 106.131 361.686 105.608C361.574 105.085 361.369 104.619 361.07 104.208C360.809 103.797 360.454 103.48 360.006 103.256C359.558 102.995 358.998 102.864 358.326 102.864C357.468 102.864 356.777 103.051 356.254 103.424C355.732 103.797 355.321 104.245 355.022 104.768C354.724 105.291 354.518 105.851 354.406 106.448C354.294 107.008 354.238 107.512 354.238 107.96V118.264C354.238 118.712 354.294 119.235 354.406 119.832C354.518 120.392 354.724 120.933 355.022 121.456C355.321 121.979 355.732 122.427 356.254 122.8C356.777 123.173 357.468 123.36 358.326 123.36ZM377.207 99.224V117.648L385.999 102.64V99.224H390.199V127H385.999V109.08L377.207 124.088V127H373.007V99.224H377.207ZM401.324 99.224V123.472H408.268V99.224H412.468V123.472H419.412V99.224H423.612V127H397.124V99.224H401.324ZM446.386 127H442.186V102.752H436.866L436.754 106C436.754 106.485 436.736 107.232 436.698 108.24C436.661 109.248 436.605 110.368 436.53 111.6C436.456 112.795 436.362 114.027 436.25 115.296C436.176 116.528 436.064 117.648 435.914 118.656C435.728 119.851 435.466 120.952 435.13 121.96C434.832 122.968 434.384 123.845 433.786 124.592C433.189 125.339 432.442 125.936 431.546 126.384C430.65 126.795 429.53 127 428.186 127H427.514V123.528H428.018C428.914 123.528 429.642 123.267 430.202 122.744C430.762 122.221 431.192 121.531 431.49 120.672C431.826 119.776 432.05 118.787 432.162 117.704C432.312 116.584 432.442 115.464 432.554 114.344C432.592 113.784 432.629 113.112 432.666 112.328C432.704 111.507 432.722 110.685 432.722 109.864C432.76 109.043 432.797 108.277 432.834 107.568C432.872 106.821 432.89 106.243 432.89 105.832L433.058 99.224H446.386V127ZM453.119 106.616C453.119 106.093 453.212 105.403 453.399 104.544C453.586 103.648 453.959 102.771 454.519 101.912C455.116 101.053 455.938 100.325 456.983 99.728C458.028 99.0933 459.41 98.776 461.127 98.776C462.844 98.776 464.226 99.0933 465.271 99.728C466.316 100.325 467.119 101.053 467.679 101.912C468.276 102.771 468.668 103.648 468.855 104.544C469.042 105.403 469.135 106.075 469.135 106.56V119.496C469.135 120.056 469.042 120.784 468.855 121.68C468.668 122.576 468.276 123.453 467.679 124.312C467.119 125.171 466.316 125.917 465.271 126.552C464.226 127.149 462.844 127.448 461.127 127.448C459.41 127.448 458.028 127.149 456.983 126.552C455.938 125.917 455.116 125.171 454.519 124.312C453.959 123.453 453.586 122.576 453.399 121.68C453.212 120.784 453.119 120.056 453.119 119.496V106.616ZM464.935 107.4C464.935 105.832 464.562 104.693 463.815 103.984C463.068 103.237 462.172 102.864 461.127 102.864C460.082 102.864 459.186 103.237 458.439 103.984C457.692 104.693 457.319 105.832 457.319 107.4V118.824C457.319 120.28 457.636 121.4 458.271 122.184C458.943 122.968 459.895 123.36 461.127 123.36C462.322 123.36 463.255 122.987 463.927 122.24C464.599 121.493 464.935 120.355 464.935 118.824V107.4ZM497.121 99.224C498.502 99.224 499.659 99.4107 500.593 99.784C501.563 100.12 502.329 100.587 502.889 101.184C503.486 101.744 503.915 102.416 504.177 103.2C504.438 103.947 504.569 104.712 504.569 105.496V107.176C504.569 108.595 504.307 109.771 503.785 110.704C503.262 111.6 502.291 112.309 500.873 112.832C502.515 113.243 503.579 113.952 504.065 114.96C504.587 115.931 504.849 117.069 504.849 118.376V120.504C504.849 121.811 504.587 122.893 504.065 123.752C503.542 124.573 502.87 125.227 502.049 125.712C501.227 126.197 500.331 126.533 499.361 126.72C498.427 126.907 497.55 127 496.729 127H488.945V99.224H497.121ZM493.145 123.472H496.673C497.755 123.472 498.689 123.211 499.473 122.688C500.257 122.165 500.649 121.251 500.649 119.944V118.544C500.649 117.051 500.238 116.005 499.417 115.408C498.595 114.773 497.681 114.456 496.673 114.456H493.145V123.472ZM493.145 111.376H496.561C497.718 111.376 498.633 111.021 499.305 110.312C500.014 109.603 500.369 108.688 500.369 107.568V106.112C500.369 105.365 500.219 104.768 499.921 104.32C499.622 103.872 499.267 103.536 498.857 103.312C498.446 103.088 498.017 102.939 497.569 102.864C497.158 102.789 496.822 102.752 496.561 102.752H493.145V111.376ZM511.257 99.224H515.457V101.968C516.353 100.773 517.324 99.952 518.369 99.504C519.452 99.0187 520.478 98.776 521.449 98.776C522.681 98.776 523.67 98.9813 524.417 99.392C525.201 99.8027 525.798 100.344 526.209 101.016C526.62 101.651 526.9 102.341 527.049 103.088C527.198 103.835 527.273 104.544 527.273 105.216V121.008C527.273 121.68 527.198 122.389 527.049 123.136C526.9 123.883 526.62 124.592 526.209 125.264C525.798 125.899 525.201 126.421 524.417 126.832C523.67 127.243 522.681 127.448 521.449 127.448C520.478 127.448 519.452 127.224 518.369 126.776C517.324 126.291 516.353 125.451 515.457 124.256V138.424H511.257V99.224ZM519.545 123.36C520.217 123.36 520.777 123.248 521.225 123.024C521.673 122.763 522.028 122.427 522.289 122.016C522.588 121.605 522.793 121.139 522.905 120.616C523.017 120.093 523.073 119.571 523.073 119.048V107.176C523.073 106.653 523.017 106.131 522.905 105.608C522.793 105.085 522.588 104.619 522.289 104.208C522.028 103.797 521.673 103.48 521.225 103.256C520.777 102.995 520.217 102.864 519.545 102.864C518.686 102.864 517.996 103.051 517.473 103.424C516.95 103.797 516.54 104.245 516.241 104.768C515.942 105.291 515.737 105.851 515.625 106.448C515.513 107.008 515.457 107.512 515.457 107.96V118.264C515.457 118.712 515.513 119.235 515.625 119.832C515.737 120.392 515.942 120.933 516.241 121.456C516.54 121.979 516.95 122.427 517.473 122.8C517.996 123.173 518.686 123.36 519.545 123.36ZM545.65 119.216H549.85V119.608C549.85 120.28 549.738 121.083 549.514 122.016C549.327 122.912 548.954 123.771 548.394 124.592C547.834 125.376 547.05 126.048 546.042 126.608C545.034 127.168 543.727 127.448 542.122 127.448C540.367 127.448 538.967 127.149 537.922 126.552C536.877 125.917 536.055 125.171 535.458 124.312C534.861 123.453 534.469 122.576 534.282 121.68C534.095 120.747 534.002 119.981 534.002 119.384V106.504C534.002 105.944 534.095 105.235 534.282 104.376C534.469 103.517 534.842 102.677 535.402 101.856C535.962 100.997 536.746 100.269 537.754 99.672C538.799 99.0747 540.162 98.776 541.842 98.776C543.485 98.776 544.829 99.0747 545.874 99.672C546.957 100.269 547.797 100.997 548.394 101.856C548.991 102.677 549.402 103.555 549.626 104.488C549.85 105.384 549.962 106.131 549.962 106.728V114.68H538.202V119.104C538.202 120.597 538.519 121.68 539.154 122.352C539.826 123.024 540.815 123.36 542.122 123.36C543.354 123.36 544.25 123.024 544.81 122.352C545.37 121.643 545.65 120.709 545.65 119.552V119.216ZM545.762 111.544V106.784C545.762 106.336 545.706 105.888 545.594 105.44C545.482 104.955 545.277 104.525 544.978 104.152C544.679 103.779 544.287 103.48 543.802 103.256C543.317 102.995 542.719 102.864 542.01 102.864C541.263 102.864 540.647 102.995 540.162 103.256C539.677 103.517 539.285 103.853 538.986 104.264C538.687 104.675 538.482 105.123 538.37 105.608C538.258 106.093 538.202 106.56 538.202 107.008V111.544H545.762ZM567.124 116.36L573.62 99.224H577.652V127H573.676V108.632L568.02 123.024H566.116L560.46 108.632V127H556.484V99.224H560.46L567.124 116.36ZM595.793 127V114.904H591.929L587.785 127H583.305L587.785 114.456C586.366 113.821 585.396 113.019 584.873 112.048C584.388 111.04 584.145 109.827 584.145 108.408V105.72C584.145 104.264 584.406 103.107 584.929 102.248C585.452 101.389 586.105 100.736 586.889 100.288C587.673 99.84 588.513 99.56 589.409 99.448C590.342 99.2987 591.182 99.224 591.929 99.224H599.993V127H595.793ZM595.793 102.304H592.265C591.257 102.304 590.342 102.621 589.521 103.256C588.737 103.891 588.345 104.973 588.345 106.504V108.016C588.345 109.397 588.718 110.387 589.465 110.984C590.249 111.581 591.182 111.88 592.265 111.88H595.793V102.304ZM620.031 99.224H624.231V111.096H631.847V99.224H636.047V127H631.847V114.68H624.231V127H620.031V99.224ZM654.535 124.256H654.479C654.143 124.667 653.789 125.059 653.415 125.432C653.042 125.805 652.613 126.141 652.127 126.44C651.642 126.739 651.082 126.981 650.447 127.168C649.85 127.355 649.103 127.448 648.207 127.448C647.087 127.448 646.154 127.261 645.407 126.888C644.698 126.477 644.119 125.917 643.671 125.208C643.261 124.499 642.962 123.677 642.775 122.744C642.589 121.811 642.495 120.784 642.495 119.664C642.495 118.208 642.626 116.92 642.887 115.8C643.149 114.643 643.597 113.672 644.231 112.888C644.866 112.104 645.687 111.507 646.695 111.096C647.741 110.685 649.047 110.48 650.615 110.48C650.914 110.48 651.343 110.499 651.903 110.536C652.463 110.536 653.341 110.592 654.535 110.704V106.616C654.535 106.243 654.461 105.832 654.311 105.384C654.162 104.936 653.919 104.525 653.583 104.152C653.285 103.779 652.893 103.48 652.407 103.256C651.922 102.995 651.325 102.864 650.615 102.864C650.242 102.864 649.85 102.92 649.439 103.032C649.066 103.107 648.693 103.275 648.319 103.536C647.983 103.797 647.666 104.152 647.367 104.6C647.106 105.048 646.919 105.608 646.807 106.28H642.775C642.775 105.123 642.981 104.077 643.391 103.144C643.839 102.211 644.418 101.427 645.127 100.792C645.874 100.12 646.733 99.616 647.703 99.28C648.711 98.944 649.775 98.776 650.895 98.776C652.501 98.776 653.807 99.056 654.815 99.616C655.861 100.139 656.663 100.811 657.223 101.632C657.821 102.416 658.213 103.312 658.399 104.32C658.623 105.291 658.735 106.224 658.735 107.12V127H654.535V124.256ZM654.535 113.784C653.938 113.709 653.397 113.653 652.911 113.616C652.426 113.541 652.015 113.504 651.679 113.504C651.082 113.504 650.485 113.597 649.887 113.784C649.29 113.933 648.749 114.232 648.263 114.68C647.815 115.091 647.442 115.651 647.143 116.36C646.845 117.032 646.695 117.872 646.695 118.88C646.695 120.859 646.994 122.184 647.591 122.856C648.189 123.528 649.085 123.864 650.279 123.864C650.727 123.864 651.194 123.733 651.679 123.472C652.165 123.211 652.613 122.837 653.023 122.352C653.471 121.867 653.826 121.325 654.087 120.728C654.386 120.093 654.535 119.403 654.535 118.656V113.784ZM673.815 131.928C673.516 133.123 673.161 134.131 672.751 134.952C672.34 135.811 671.836 136.483 671.239 136.968C670.679 137.491 669.988 137.864 669.167 138.088C668.383 138.312 667.449 138.424 666.367 138.424H665.415V134.616H666.199C667.505 134.616 668.439 134.243 668.999 133.496C669.559 132.749 670.044 131.555 670.455 129.912L671.239 126.608L663.063 99.224H667.487L673.087 119.44H673.199L677.455 99.224H681.711L673.815 131.928ZM697.324 115.296C696.353 115.781 695.383 116.099 694.412 116.248C693.441 116.36 692.545 116.416 691.724 116.416C689.857 116.416 688.401 115.949 687.356 115.016C686.311 114.083 685.788 112.44 685.788 110.088V99.224H689.988V109.192C689.988 111.619 691.201 112.832 693.628 112.832C694.375 112.832 695.047 112.739 695.644 112.552C696.241 112.328 696.801 112.067 697.324 111.768V99.224H701.524V127H697.324V115.296ZM712.66 99.224V117.648L721.452 102.64V99.224H725.652V127H721.452V109.08L712.66 124.088V127H708.46V99.224H712.66ZM740.193 102.752V127H735.993V102.752H730.113V99.224H746.073V102.752H740.193ZM754.77 99.224V110.312H758.522C759.306 110.312 760.146 110.387 761.042 110.536C761.975 110.648 762.834 110.928 763.618 111.376C764.402 111.824 765.055 112.477 765.578 113.336C766.1 114.195 766.362 115.352 766.362 116.808V120.168C766.362 122.632 765.634 124.387 764.178 125.432C762.759 126.477 760.874 127 758.522 127H750.57V99.224H754.77ZM754.77 123.472H758.186C758.634 123.472 759.082 123.416 759.53 123.304C760.015 123.192 760.444 123.005 760.818 122.744C761.228 122.445 761.546 122.072 761.77 121.624C762.031 121.139 762.162 120.541 762.162 119.832V117.536C762.162 116.155 761.732 115.203 760.874 114.68C760.052 114.12 759.156 113.84 758.186 113.84H754.77V123.472ZM278.945 170.76C278.945 169.379 279.019 167.979 279.169 166.56C279.355 165.104 279.822 163.816 280.569 162.696C281.203 161.725 281.894 160.979 282.641 160.456C283.425 159.933 284.209 159.523 284.993 159.224C285.478 159.037 285.963 158.869 286.449 158.72C286.971 158.533 287.438 158.365 287.849 158.216C289.79 157.544 290.761 156.555 290.761 155.248V154.8H294.457V155.528C294.457 156.013 294.438 156.555 294.401 157.152C294.363 157.712 294.233 158.216 294.009 158.664C293.598 159.411 293.019 159.971 292.273 160.344C291.563 160.68 290.686 161.016 289.641 161.352L286.841 162.304C286.318 162.491 285.739 162.752 285.105 163.088C284.507 163.387 283.985 163.835 283.537 164.432C283.126 164.992 282.809 165.645 282.585 166.392C282.398 167.139 282.305 167.829 282.305 168.464V169.864H282.473C282.995 168.893 283.761 168.053 284.769 167.344C285.814 166.597 287.233 166.224 289.025 166.224C289.958 166.224 290.779 166.373 291.489 166.672C292.198 166.971 292.758 167.325 293.169 167.736C293.691 168.221 294.121 168.837 294.457 169.584C294.793 170.293 294.961 171.115 294.961 172.048V185.488C294.961 186.011 294.942 186.589 294.905 187.224C294.867 187.821 294.755 188.437 294.569 189.072C294.419 189.707 294.158 190.341 293.785 190.976C293.449 191.573 292.982 192.115 292.385 192.6C291.638 193.235 290.779 193.701 289.809 194C288.875 194.299 287.923 194.448 286.953 194.448C285.982 194.448 285.011 194.299 284.041 194C283.107 193.739 282.267 193.291 281.521 192.656C280.923 192.171 280.438 191.629 280.065 191.032C279.729 190.397 279.467 189.763 279.281 189.128C279.131 188.456 279.038 187.821 279.001 187.224C278.963 186.589 278.945 186.011 278.945 185.488V170.76ZM290.761 174.4C290.761 173.653 290.649 172.981 290.425 172.384C290.201 171.787 289.939 171.32 289.641 170.984C288.894 170.237 287.998 169.864 286.953 169.864C286.43 169.864 285.926 169.976 285.441 170.2C284.993 170.424 284.601 170.704 284.265 171.04C283.966 171.376 283.705 171.88 283.481 172.552C283.257 173.187 283.145 173.877 283.145 174.624V185.824C283.145 186.608 283.257 187.299 283.481 187.896C283.705 188.493 283.966 188.979 284.265 189.352C284.563 189.651 284.937 189.893 285.385 190.08C285.87 190.267 286.393 190.36 286.953 190.36C287.513 190.36 288.017 190.267 288.465 190.08C288.95 189.893 289.342 189.651 289.641 189.352C289.939 188.979 290.201 188.493 290.425 187.896C290.649 187.299 290.761 186.608 290.761 185.824V174.4ZM313.231 191.256H313.175C312.839 191.667 312.484 192.059 312.111 192.432C311.737 192.805 311.308 193.141 310.823 193.44C310.337 193.739 309.777 193.981 309.143 194.168C308.545 194.355 307.799 194.448 306.903 194.448C305.783 194.448 304.849 194.261 304.103 193.888C303.393 193.477 302.815 192.917 302.367 192.208C301.956 191.499 301.657 190.677 301.471 189.744C301.284 188.811 301.191 187.784 301.191 186.664C301.191 185.208 301.321 183.92 301.583 182.8C301.844 181.643 302.292 180.672 302.927 179.888C303.561 179.104 304.383 178.507 305.391 178.096C306.436 177.685 307.743 177.48 309.311 177.48C309.609 177.48 310.039 177.499 310.599 177.536C311.159 177.536 312.036 177.592 313.231 177.704V173.616C313.231 173.243 313.156 172.832 313.007 172.384C312.857 171.936 312.615 171.525 312.279 171.152C311.98 170.779 311.588 170.48 311.103 170.256C310.617 169.995 310.02 169.864 309.311 169.864C308.937 169.864 308.545 169.92 308.135 170.032C307.761 170.107 307.388 170.275 307.015 170.536C306.679 170.797 306.361 171.152 306.063 171.6C305.801 172.048 305.615 172.608 305.503 173.28H301.471C301.471 172.123 301.676 171.077 302.087 170.144C302.535 169.211 303.113 168.427 303.823 167.792C304.569 167.12 305.428 166.616 306.399 166.28C307.407 165.944 308.471 165.776 309.591 165.776C311.196 165.776 312.503 166.056 313.511 166.616C314.556 167.139 315.359 167.811 315.919 168.632C316.516 169.416 316.908 170.312 317.095 171.32C317.319 172.291 317.431 173.224 317.431 174.12V194H313.231V191.256ZM313.231 180.784C312.633 180.709 312.092 180.653 311.607 180.616C311.121 180.541 310.711 180.504 310.375 180.504C309.777 180.504 309.18 180.597 308.583 180.784C307.985 180.933 307.444 181.232 306.959 181.68C306.511 182.091 306.137 182.651 305.839 183.36C305.54 184.032 305.391 184.872 305.391 185.88C305.391 187.859 305.689 189.184 306.287 189.856C306.884 190.528 307.78 190.864 308.975 190.864C309.423 190.864 309.889 190.733 310.375 190.472C310.86 190.211 311.308 189.837 311.719 189.352C312.167 188.867 312.521 188.325 312.783 187.728C313.081 187.093 313.231 186.403 313.231 185.656V180.784ZM340.238 194H336.038V169.752H330.718L330.606 173C330.606 173.485 330.587 174.232 330.55 175.24C330.513 176.248 330.457 177.368 330.382 178.6C330.307 179.795 330.214 181.027 330.102 182.296C330.027 183.528 329.915 184.648 329.766 185.656C329.579 186.851 329.318 187.952 328.982 188.96C328.683 189.968 328.235 190.845 327.638 191.592C327.041 192.339 326.294 192.936 325.398 193.384C324.502 193.795 323.382 194 322.038 194H321.366V190.528H321.87C322.766 190.528 323.494 190.267 324.054 189.744C324.614 189.221 325.043 188.531 325.342 187.672C325.678 186.776 325.902 185.787 326.014 184.704C326.163 183.584 326.294 182.464 326.406 181.344C326.443 180.784 326.481 180.112 326.518 179.328C326.555 178.507 326.574 177.685 326.574 176.864C326.611 176.043 326.649 175.277 326.686 174.568C326.723 173.821 326.742 173.243 326.742 172.832L326.91 166.224H340.238V194ZM358.619 186.216H362.819V186.608C362.819 187.28 362.707 188.083 362.483 189.016C362.296 189.912 361.923 190.771 361.363 191.592C360.803 192.376 360.019 193.048 359.011 193.608C358.003 194.168 356.696 194.448 355.091 194.448C353.336 194.448 351.936 194.149 350.891 193.552C349.845 192.917 349.024 192.171 348.427 191.312C347.829 190.453 347.437 189.576 347.251 188.68C347.064 187.747 346.971 186.981 346.971 186.384V173.504C346.971 172.944 347.064 172.235 347.251 171.376C347.437 170.517 347.811 169.677 348.371 168.856C348.931 167.997 349.715 167.269 350.723 166.672C351.768 166.075 353.131 165.776 354.811 165.776C356.453 165.776 357.797 166.075 358.843 166.672C359.925 167.269 360.765 167.997 361.363 168.856C361.96 169.677 362.371 170.555 362.595 171.488C362.819 172.384 362.931 173.131 362.931 173.728V181.68H351.171V186.104C351.171 187.597 351.488 188.68 352.123 189.352C352.795 190.024 353.784 190.36 355.091 190.36C356.323 190.36 357.219 190.024 357.779 189.352C358.339 188.643 358.619 187.709 358.619 186.552V186.216ZM358.731 178.544V173.784C358.731 173.336 358.675 172.888 358.563 172.44C358.451 171.955 358.245 171.525 357.947 171.152C357.648 170.779 357.256 170.48 356.771 170.256C356.285 169.995 355.688 169.864 354.979 169.864C354.232 169.864 353.616 169.995 353.131 170.256C352.645 170.517 352.253 170.853 351.955 171.264C351.656 171.675 351.451 172.123 351.339 172.608C351.227 173.093 351.171 173.56 351.171 174.008V178.544H358.731ZM369.452 166.224H373.652V168.968C374.548 167.773 375.519 166.952 376.564 166.504C377.647 166.019 378.674 165.776 379.644 165.776C380.876 165.776 381.866 165.981 382.612 166.392C383.396 166.803 383.994 167.344 384.404 168.016C384.815 168.651 385.095 169.341 385.244 170.088C385.394 170.835 385.468 171.544 385.468 172.216V188.008C385.468 188.68 385.394 189.389 385.244 190.136C385.095 190.883 384.815 191.592 384.404 192.264C383.994 192.899 383.396 193.421 382.612 193.832C381.866 194.243 380.876 194.448 379.644 194.448C378.674 194.448 377.647 194.224 376.564 193.776C375.519 193.291 374.548 192.451 373.652 191.256V205.424H369.452V166.224ZM377.74 190.36C378.412 190.36 378.972 190.248 379.42 190.024C379.868 189.763 380.223 189.427 380.484 189.016C380.783 188.605 380.988 188.139 381.1 187.616C381.212 187.093 381.268 186.571 381.268 186.048V174.176C381.268 173.653 381.212 173.131 381.1 172.608C380.988 172.085 380.783 171.619 380.484 171.208C380.223 170.797 379.868 170.48 379.42 170.256C378.972 169.995 378.412 169.864 377.74 169.864C376.882 169.864 376.191 170.051 375.668 170.424C375.146 170.797 374.735 171.245 374.436 171.768C374.138 172.291 373.932 172.851 373.82 173.448C373.708 174.008 373.652 174.512 373.652 174.96V185.264C373.652 185.712 373.708 186.235 373.82 186.832C373.932 187.392 374.138 187.933 374.436 188.456C374.735 188.979 375.146 189.427 375.668 189.8C376.191 190.173 376.882 190.36 377.74 190.36ZM396.621 166.224V184.648L405.413 169.64V166.224H409.613V194H405.413V176.08L396.621 191.088V194H392.421V166.224H396.621ZM416.538 166.224H420.738V178.096H428.354V166.224H432.554V194H428.354V181.68H420.738V194H416.538V166.224ZM447.627 198.928C447.328 200.123 446.974 201.131 446.563 201.952C446.152 202.811 445.648 203.483 445.051 203.968C444.491 204.491 443.8 204.864 442.979 205.088C442.195 205.312 441.262 205.424 440.179 205.424H439.227V201.616H440.011C441.318 201.616 442.251 201.243 442.811 200.496C443.371 199.749 443.856 198.555 444.267 196.912L445.051 193.608L436.875 166.224H441.299L446.899 186.44H447.011L451.267 166.224H455.523L447.627 198.928ZM480.811 169.752V194H476.611V169.752H470.731V166.224H486.691V169.752H480.811ZM501.903 191.256H501.847C501.511 191.667 501.156 192.059 500.783 192.432C500.409 192.805 499.98 193.141 499.495 193.44C499.009 193.739 498.449 193.981 497.815 194.168C497.217 194.355 496.471 194.448 495.575 194.448C494.455 194.448 493.521 194.261 492.775 193.888C492.065 193.477 491.487 192.917 491.039 192.208C490.628 191.499 490.329 190.677 490.143 189.744C489.956 188.811 489.863 187.784 489.863 186.664C489.863 185.208 489.993 183.92 490.255 182.8C490.516 181.643 490.964 180.672 491.599 179.888C492.233 179.104 493.055 178.507 494.063 178.096C495.108 177.685 496.415 177.48 497.983 177.48C498.281 177.48 498.711 177.499 499.271 177.536C499.831 177.536 500.708 177.592 501.903 177.704V173.616C501.903 173.243 501.828 172.832 501.679 172.384C501.529 171.936 501.287 171.525 500.951 171.152C500.652 170.779 500.26 170.48 499.775 170.256C499.289 169.995 498.692 169.864 497.983 169.864C497.609 169.864 497.217 169.92 496.807 170.032C496.433 170.107 496.06 170.275 495.687 170.536C495.351 170.797 495.033 171.152 494.735 171.6C494.473 172.048 494.287 172.608 494.175 173.28H490.143C490.143 172.123 490.348 171.077 490.759 170.144C491.207 169.211 491.785 168.427 492.495 167.792C493.241 167.12 494.1 166.616 495.071 166.28C496.079 165.944 497.143 165.776 498.263 165.776C499.868 165.776 501.175 166.056 502.183 166.616C503.228 167.139 504.031 167.811 504.591 168.632C505.188 169.416 505.58 170.312 505.767 171.32C505.991 172.291 506.103 173.224 506.103 174.12V194H501.903V191.256ZM501.903 180.784C501.305 180.709 500.764 180.653 500.279 180.616C499.793 180.541 499.383 180.504 499.047 180.504C498.449 180.504 497.852 180.597 497.255 180.784C496.657 180.933 496.116 181.232 495.631 181.68C495.183 182.091 494.809 182.651 494.511 183.36C494.212 184.032 494.063 184.872 494.063 185.88C494.063 187.859 494.361 189.184 494.959 189.856C495.556 190.528 496.452 190.864 497.647 190.864C498.095 190.864 498.561 190.733 499.047 190.472C499.532 190.211 499.98 189.837 500.391 189.352C500.839 188.867 501.193 188.325 501.455 187.728C501.753 187.093 501.903 186.403 501.903 185.656V180.784ZM513.062 166.224H517.262V178.096H524.878V166.224H529.078V194H524.878V181.68H517.262V194H513.062V166.224ZM536.031 166.224H540.231V190.472H547.791V166.224H551.991V190.472H555.631V199.824H551.711V194H536.031V166.224ZM571.408 186.216H575.608V186.608C575.608 187.28 575.496 188.083 575.272 189.016C575.085 189.912 574.712 190.771 574.152 191.592C573.592 192.376 572.808 193.048 571.8 193.608C570.792 194.168 569.485 194.448 567.88 194.448C566.125 194.448 564.725 194.149 563.68 193.552C562.634 192.917 561.813 192.171 561.216 191.312C560.618 190.453 560.226 189.576 560.04 188.68C559.853 187.747 559.76 186.981 559.76 186.384V173.504C559.76 172.944 559.853 172.235 560.04 171.376C560.226 170.517 560.6 169.677 561.16 168.856C561.72 167.997 562.504 167.269 563.512 166.672C564.557 166.075 565.92 165.776 567.6 165.776C569.242 165.776 570.586 166.075 571.632 166.672C572.714 167.269 573.554 167.997 574.152 168.856C574.749 169.677 575.16 170.555 575.384 171.488C575.608 172.384 575.72 173.131 575.72 173.728V181.68H563.96V186.104C563.96 187.597 564.277 188.68 564.912 189.352C565.584 190.024 566.573 190.36 567.88 190.36C569.112 190.36 570.008 190.024 570.568 189.352C571.128 188.643 571.408 187.709 571.408 186.552V186.216ZM571.52 178.544V173.784C571.52 173.336 571.464 172.888 571.352 172.44C571.24 171.955 571.034 171.525 570.736 171.152C570.437 170.779 570.045 170.48 569.56 170.256C569.074 169.995 568.477 169.864 567.768 169.864C567.021 169.864 566.405 169.995 565.92 170.256C565.434 170.517 565.042 170.853 564.744 171.264C564.445 171.675 564.24 172.123 564.128 172.608C564.016 173.093 563.96 173.56 563.96 174.008V178.544H571.52ZM590.418 166.224C591.799 166.224 592.956 166.411 593.89 166.784C594.86 167.12 595.626 167.587 596.186 168.184C596.783 168.744 597.212 169.416 597.474 170.2C597.735 170.947 597.866 171.712 597.866 172.496V174.176C597.866 175.595 597.604 176.771 597.082 177.704C596.559 178.6 595.588 179.309 594.17 179.832C595.812 180.243 596.876 180.952 597.362 181.96C597.884 182.931 598.146 184.069 598.146 185.376V187.504C598.146 188.811 597.884 189.893 597.362 190.752C596.839 191.573 596.167 192.227 595.346 192.712C594.524 193.197 593.628 193.533 592.658 193.72C591.724 193.907 590.847 194 590.026 194H582.242V166.224H590.418ZM586.442 190.472H589.97C591.052 190.472 591.986 190.211 592.77 189.688C593.554 189.165 593.946 188.251 593.946 186.944V185.544C593.946 184.051 593.535 183.005 592.714 182.408C591.892 181.773 590.978 181.456 589.97 181.456H586.442V190.472ZM586.442 178.376H589.858C591.015 178.376 591.93 178.021 592.602 177.312C593.311 176.603 593.666 175.688 593.666 174.568V173.112C593.666 172.365 593.516 171.768 593.218 171.32C592.919 170.872 592.564 170.536 592.154 170.312C591.743 170.088 591.314 169.939 590.866 169.864C590.455 169.789 590.119 169.752 589.858 169.752H586.442V178.376ZM616.09 191.256H616.034C615.698 191.667 615.343 192.059 614.97 192.432C614.597 192.805 614.167 193.141 613.682 193.44C613.197 193.739 612.637 193.981 612.002 194.168C611.405 194.355 610.658 194.448 609.762 194.448C608.642 194.448 607.709 194.261 606.962 193.888C606.253 193.477 605.674 192.917 605.226 192.208C604.815 191.499 604.517 190.677 604.33 189.744C604.143 188.811 604.05 187.784 604.05 186.664C604.05 185.208 604.181 183.92 604.442 182.8C604.703 181.643 605.151 180.672 605.786 179.888C606.421 179.104 607.242 178.507 608.25 178.096C609.295 177.685 610.602 177.48 612.17 177.48C612.469 177.48 612.898 177.499 613.458 177.536C614.018 177.536 614.895 177.592 616.09 177.704V173.616C616.09 173.243 616.015 172.832 615.866 172.384C615.717 171.936 615.474 171.525 615.138 171.152C614.839 170.779 614.447 170.48 613.962 170.256C613.477 169.995 612.879 169.864 612.17 169.864C611.797 169.864 611.405 169.92 610.994 170.032C610.621 170.107 610.247 170.275 609.874 170.536C609.538 170.797 609.221 171.152 608.922 171.6C608.661 172.048 608.474 172.608 608.362 173.28H604.33C604.33 172.123 604.535 171.077 604.946 170.144C605.394 169.211 605.973 168.427 606.682 167.792C607.429 167.12 608.287 166.616 609.258 166.28C610.266 165.944 611.33 165.776 612.45 165.776C614.055 165.776 615.362 166.056 616.37 166.616C617.415 167.139 618.218 167.811 618.778 168.632C619.375 169.416 619.767 170.312 619.954 171.32C620.178 172.291 620.29 173.224 620.29 174.12V194H616.09V191.256ZM616.09 180.784C615.493 180.709 614.951 180.653 614.466 180.616C613.981 180.541 613.57 180.504 613.234 180.504C612.637 180.504 612.039 180.597 611.442 180.784C610.845 180.933 610.303 181.232 609.818 181.68C609.37 182.091 608.997 182.651 608.698 183.36C608.399 184.032 608.25 184.872 608.25 185.88C608.25 187.859 608.549 189.184 609.146 189.856C609.743 190.528 610.639 190.864 611.834 190.864C612.282 190.864 612.749 190.733 613.234 190.472C613.719 190.211 614.167 189.837 614.578 189.352C615.026 188.867 615.381 188.325 615.642 187.728C615.941 187.093 616.09 186.403 616.09 185.656V180.784ZM634.865 169.752V194H630.665V169.752H624.785V166.224H640.745V169.752H634.865ZM649.442 166.224V177.312H653.194C653.978 177.312 654.818 177.387 655.714 177.536C656.647 177.648 657.506 177.928 658.29 178.376C659.074 178.824 659.727 179.477 660.25 180.336C660.772 181.195 661.034 182.352 661.034 183.808V187.168C661.034 189.632 660.306 191.387 658.85 192.432C657.431 193.477 655.546 194 653.194 194H645.242V166.224H649.442ZM649.442 190.472H652.858C653.306 190.472 653.754 190.416 654.202 190.304C654.687 190.192 655.116 190.005 655.49 189.744C655.9 189.445 656.218 189.072 656.442 188.624C656.703 188.139 656.834 187.541 656.834 186.832V184.536C656.834 183.155 656.404 182.203 655.546 181.68C654.724 181.12 653.828 180.84 652.858 180.84H649.442V190.472ZM671.44 154.8L670.208 183.808H667.184L666.232 154.8H671.44ZM671.104 189.24V194H666.344V189.24H671.104ZM100.633 221.8V239.328H110.097V221.8H114.297V261H110.097V242.968H100.633V261H96.433V221.8H100.633ZM133.117 258.256H133.061C132.725 258.667 132.371 259.059 131.997 259.432C131.624 259.805 131.195 260.141 130.709 260.44C130.224 260.739 129.664 260.981 129.029 261.168C128.432 261.355 127.685 261.448 126.789 261.448C125.669 261.448 124.736 261.261 123.989 260.888C123.28 260.477 122.701 259.917 122.253 259.208C121.843 258.499 121.544 257.677 121.357 256.744C121.171 255.811 121.077 254.784 121.077 253.664C121.077 252.208 121.208 250.92 121.469 249.8C121.731 248.643 122.179 247.672 122.813 246.888C123.448 246.104 124.269 245.507 125.277 245.096C126.323 244.685 127.629 244.48 129.197 244.48C129.496 244.48 129.925 244.499 130.485 244.536C131.045 244.536 131.923 244.592 133.117 244.704V240.616C133.117 240.243 133.043 239.832 132.893 239.384C132.744 238.936 132.501 238.525 132.165 238.152C131.867 237.779 131.475 237.48 130.989 237.256C130.504 236.995 129.907 236.864 129.197 236.864C128.824 236.864 128.432 236.92 128.021 237.032C127.648 237.107 127.275 237.275 126.901 237.536C126.565 237.797 126.248 238.152 125.949 238.6C125.688 239.048 125.501 239.608 125.389 240.28H121.357C121.357 239.123 121.563 238.077 121.973 237.144C122.421 236.211 123 235.427 123.709 234.792C124.456 234.12 125.315 233.616 126.285 233.28C127.293 232.944 128.357 232.776 129.477 232.776C131.083 232.776 132.389 233.056 133.397 233.616C134.443 234.139 135.245 234.811 135.805 235.632C136.403 236.416 136.795 237.312 136.981 238.32C137.205 239.291 137.317 240.224 137.317 241.12V261H133.117V258.256ZM133.117 247.784C132.52 247.709 131.979 247.653 131.493 247.616C131.008 247.541 130.597 247.504 130.261 247.504C129.664 247.504 129.067 247.597 128.469 247.784C127.872 247.933 127.331 248.232 126.845 248.68C126.397 249.091 126.024 249.651 125.725 250.36C125.427 251.032 125.277 251.872 125.277 252.88C125.277 254.859 125.576 256.184 126.173 256.856C126.771 257.528 127.667 257.864 128.861 257.864C129.309 257.864 129.776 257.733 130.261 257.472C130.747 257.211 131.195 256.837 131.605 256.352C132.053 255.867 132.408 255.325 132.669 254.728C132.968 254.093 133.117 253.403 133.117 252.656V247.784ZM154.917 245.152V233.224H159.117V245.152H161.581C162.253 245.152 162.794 245.003 163.205 244.704C163.615 244.368 163.933 243.957 164.157 243.472C164.418 242.987 164.586 242.464 164.661 241.904C164.773 241.307 164.866 240.747 164.941 240.224L165.277 237.76C165.389 237.051 165.538 236.397 165.725 235.8C165.911 235.203 166.191 234.699 166.565 234.288C166.975 233.84 167.517 233.504 168.189 233.28C168.898 233.056 169.813 232.944 170.933 232.944H171.437V236.36H170.933C170.186 236.36 169.663 236.64 169.365 237.2C169.066 237.76 168.842 238.563 168.693 239.608L168.357 241.904C168.17 243.099 167.983 244.051 167.797 244.76C167.61 245.469 167.162 246.123 166.453 246.72L171.437 261H167.293L162.925 248.4H159.117V261H154.917V248.4H151.109L146.741 261H142.597L147.581 246.72C146.871 246.123 146.423 245.469 146.237 244.76C146.05 244.051 145.863 243.099 145.677 241.904L145.341 239.608C145.191 238.563 144.967 237.76 144.669 237.2C144.37 236.64 143.847 236.36 143.101 236.36H142.597V232.944H143.101C144.221 232.944 145.117 233.056 145.789 233.28C146.498 233.504 147.039 233.84 147.413 234.288C147.823 234.699 148.122 235.203 148.309 235.8C148.495 236.397 148.645 237.051 148.757 237.76L149.093 240.224C149.167 240.747 149.242 241.307 149.317 241.904C149.429 242.464 149.597 242.987 149.821 243.472C150.082 243.957 150.418 244.368 150.829 244.704C151.239 245.003 151.781 245.152 152.453 245.152H154.917ZM187.346 250.36L193.842 233.224H197.874V261H193.898V242.632L188.242 257.024H186.338L180.682 242.632V261H176.706V233.224H180.682L187.346 250.36ZM209.016 233.224V251.648L217.808 236.64V233.224H222.008V261H217.808V243.08L209.016 258.088V261H204.816V233.224H209.016ZM242.003 233.224H246.203V245.096H253.819V233.224H258.019V261H253.819V248.68H246.203V261H242.003V233.224ZM276.508 258.256H276.452C276.116 258.667 275.761 259.059 275.388 259.432C275.015 259.805 274.585 260.141 274.1 260.44C273.615 260.739 273.055 260.981 272.42 261.168C271.823 261.355 271.076 261.448 270.18 261.448C269.06 261.448 268.127 261.261 267.38 260.888C266.671 260.477 266.092 259.917 265.644 259.208C265.233 258.499 264.935 257.677 264.748 256.744C264.561 255.811 264.468 254.784 264.468 253.664C264.468 252.208 264.599 250.92 264.86 249.8C265.121 248.643 265.569 247.672 266.204 246.888C266.839 246.104 267.66 245.507 268.668 245.096C269.713 244.685 271.02 244.48 272.588 244.48C272.887 244.48 273.316 244.499 273.876 244.536C274.436 244.536 275.313 244.592 276.508 244.704V240.616C276.508 240.243 276.433 239.832 276.284 239.384C276.135 238.936 275.892 238.525 275.556 238.152C275.257 237.779 274.865 237.48 274.38 237.256C273.895 236.995 273.297 236.864 272.588 236.864C272.215 236.864 271.823 236.92 271.412 237.032C271.039 237.107 270.665 237.275 270.292 237.536C269.956 237.797 269.639 238.152 269.34 238.6C269.079 239.048 268.892 239.608 268.78 240.28H264.748C264.748 239.123 264.953 238.077 265.364 237.144C265.812 236.211 266.391 235.427 267.1 234.792C267.847 234.12 268.705 233.616 269.676 233.28C270.684 232.944 271.748 232.776 272.868 232.776C274.473 232.776 275.78 233.056 276.788 233.616C277.833 234.139 278.636 234.811 279.196 235.632C279.793 236.416 280.185 237.312 280.372 238.32C280.596 239.291 280.708 240.224 280.708 241.12V261H276.508V258.256ZM276.508 247.784C275.911 247.709 275.369 247.653 274.884 247.616C274.399 247.541 273.988 247.504 273.652 247.504C273.055 247.504 272.457 247.597 271.86 247.784C271.263 247.933 270.721 248.232 270.236 248.68C269.788 249.091 269.415 249.651 269.116 250.36C268.817 251.032 268.668 251.872 268.668 252.88C268.668 254.859 268.967 256.184 269.564 256.856C270.161 257.528 271.057 257.864 272.252 257.864C272.7 257.864 273.167 257.733 273.652 257.472C274.137 257.211 274.585 256.837 274.996 256.352C275.444 255.867 275.799 255.325 276.06 254.728C276.359 254.093 276.508 253.403 276.508 252.656V247.784ZM312.554 252.488H316.754V253.608C316.754 254.28 316.623 255.083 316.362 256.016C316.138 256.912 315.708 257.771 315.074 258.592C314.476 259.376 313.655 260.048 312.61 260.608C311.564 261.168 310.239 261.448 308.634 261.448C306.879 261.448 305.479 261.149 304.434 260.552C303.388 259.917 302.567 259.171 301.97 258.312C301.372 257.453 300.98 256.576 300.794 255.68C300.607 254.747 300.514 253.981 300.514 253.384V240.784C300.514 240.224 300.607 239.496 300.794 238.6C300.98 237.667 301.372 236.771 301.97 235.912C302.567 235.053 303.388 234.325 304.434 233.728C305.479 233.093 306.879 232.776 308.634 232.776C310.276 232.776 311.62 233.056 312.666 233.616C313.748 234.176 314.588 234.867 315.186 235.688C315.783 236.509 316.194 237.368 316.418 238.264C316.642 239.123 316.754 239.888 316.754 240.56V241.792H312.554V241.4C312.554 239.832 312.162 238.693 311.378 237.984C310.631 237.237 309.716 236.864 308.634 236.864C307.551 236.864 306.618 237.237 305.834 237.984C305.087 238.693 304.714 239.832 304.714 241.4V252.824C304.714 255.848 306.02 257.36 308.634 257.36C309.866 257.36 310.818 256.987 311.49 256.24C312.199 255.493 312.554 254.355 312.554 252.824V252.488ZM329.846 236.752V261H325.646V236.752H319.766V233.224H335.726V236.752H329.846ZM340.222 233.224H344.422V235.968C345.318 234.773 346.289 233.952 347.334 233.504C348.417 233.019 349.443 232.776 350.414 232.776C351.646 232.776 352.635 232.981 353.382 233.392C354.166 233.803 354.763 234.344 355.174 235.016C355.585 235.651 355.865 236.341 356.014 237.088C356.163 237.835 356.238 238.544 356.238 239.216V255.008C356.238 255.68 356.163 256.389 356.014 257.136C355.865 257.883 355.585 258.592 355.174 259.264C354.763 259.899 354.166 260.421 353.382 260.832C352.635 261.243 351.646 261.448 350.414 261.448C349.443 261.448 348.417 261.224 347.334 260.776C346.289 260.291 345.318 259.451 344.422 258.256V272.424H340.222V233.224ZM348.51 257.36C349.182 257.36 349.742 257.248 350.19 257.024C350.638 256.763 350.993 256.427 351.254 256.016C351.553 255.605 351.758 255.139 351.87 254.616C351.982 254.093 352.038 253.571 352.038 253.048V241.176C352.038 240.653 351.982 240.131 351.87 239.608C351.758 239.085 351.553 238.619 351.254 238.208C350.993 237.797 350.638 237.48 350.19 237.256C349.742 236.995 349.182 236.864 348.51 236.864C347.651 236.864 346.961 237.051 346.438 237.424C345.915 237.797 345.505 238.245 345.206 238.768C344.907 239.291 344.702 239.851 344.59 240.448C344.478 241.008 344.422 241.512 344.422 241.96V252.264C344.422 252.712 344.478 253.235 344.59 253.832C344.702 254.392 344.907 254.933 345.206 255.456C345.505 255.979 345.915 256.427 346.438 256.8C346.961 257.173 347.651 257.36 348.51 257.36ZM374.615 253.216H378.815V253.608C378.815 254.28 378.703 255.083 378.479 256.016C378.292 256.912 377.919 257.771 377.359 258.592C376.799 259.376 376.015 260.048 375.007 260.608C373.999 261.168 372.692 261.448 371.087 261.448C369.332 261.448 367.932 261.149 366.887 260.552C365.841 259.917 365.02 259.171 364.423 258.312C363.825 257.453 363.433 256.576 363.247 255.68C363.06 254.747 362.967 253.981 362.967 253.384V240.504C362.967 239.944 363.06 239.235 363.247 238.376C363.433 237.517 363.807 236.677 364.367 235.856C364.927 234.997 365.711 234.269 366.719 233.672C367.764 233.075 369.127 232.776 370.807 232.776C372.449 232.776 373.793 233.075 374.839 233.672C375.921 234.269 376.761 234.997 377.359 235.856C377.956 236.677 378.367 237.555 378.591 238.488C378.815 239.384 378.927 240.131 378.927 240.728V248.68H367.167V253.104C367.167 254.597 367.484 255.68 368.119 256.352C368.791 257.024 369.78 257.36 371.087 257.36C372.319 257.36 373.215 257.024 373.775 256.352C374.335 255.643 374.615 254.709 374.615 253.552V253.216ZM374.727 245.544V240.784C374.727 240.336 374.671 239.888 374.559 239.44C374.447 238.955 374.241 238.525 373.943 238.152C373.644 237.779 373.252 237.48 372.767 237.256C372.281 236.995 371.684 236.864 370.975 236.864C370.228 236.864 369.612 236.995 369.127 237.256C368.641 237.517 368.249 237.853 367.951 238.264C367.652 238.675 367.447 239.123 367.335 239.608C367.223 240.093 367.167 240.56 367.167 241.008V245.544H374.727ZM401.297 261H397.097V236.752H391.777L391.665 240C391.665 240.485 391.646 241.232 391.609 242.24C391.571 243.248 391.515 244.368 391.441 245.6C391.366 246.795 391.273 248.027 391.161 249.296C391.086 250.528 390.974 251.648 390.825 252.656C390.638 253.851 390.377 254.952 390.041 255.96C389.742 256.968 389.294 257.845 388.697 258.592C388.099 259.339 387.353 259.936 386.457 260.384C385.561 260.795 384.441 261 383.097 261H382.425V257.528H382.929C383.825 257.528 384.553 257.267 385.113 256.744C385.673 256.221 386.102 255.531 386.401 254.672C386.737 253.776 386.961 252.787 387.073 251.704C387.222 250.584 387.353 249.464 387.465 248.344C387.502 247.784 387.539 247.112 387.577 246.328C387.614 245.507 387.633 244.685 387.633 243.864C387.67 243.043 387.707 242.277 387.745 241.568C387.782 240.821 387.801 240.243 387.801 239.832L387.969 233.224H401.297V261ZM415.589 245.04C416.261 245.04 416.803 244.891 417.213 244.592C417.624 244.293 417.941 243.901 418.165 243.416C418.427 242.931 418.595 242.408 418.669 241.848C418.781 241.288 418.875 240.747 418.949 240.224L419.285 237.76C419.397 237.051 419.547 236.397 419.733 235.8C419.92 235.203 420.2 234.699 420.573 234.288C420.984 233.84 421.525 233.504 422.197 233.28C422.907 233.056 423.821 232.944 424.941 232.944H425.557V236.472H424.941C424.195 236.472 423.672 236.733 423.373 237.256C423.075 237.779 422.851 238.563 422.701 239.608L422.365 241.904C422.179 243.099 421.992 244.051 421.805 244.76C421.619 245.469 421.171 246.123 420.461 246.72L425.445 261H421.301L416.933 248.4H412.453V261H408.253V233.224H412.453V245.04H415.589ZM439.561 265.928C439.262 267.123 438.907 268.131 438.497 268.952C438.086 269.811 437.582 270.483 436.985 270.968C436.425 271.491 435.734 271.864 434.913 272.088C434.129 272.312 433.195 272.424 432.113 272.424H431.161V268.616H431.945C433.251 268.616 434.185 268.243 434.745 267.496C435.305 266.749 435.79 265.555 436.201 263.912L436.985 260.608L428.809 233.224H433.233L438.833 253.44H438.945L443.201 233.224H447.457L439.561 265.928ZM456.762 256.24V261.504L451.946 265.816V256.24H456.762ZM496.926 257.472V266.824H493.006V261H478.222V266.824H474.302V257.472H477.046C477.793 255.792 478.353 254.243 478.726 252.824C479.137 251.405 479.454 249.968 479.678 248.512C479.79 247.691 479.884 246.776 479.958 245.768C480.033 244.723 480.089 243.677 480.126 242.632C480.201 241.549 480.257 240.485 480.294 239.44C480.332 238.357 480.35 237.368 480.35 236.472V233.224H493.622V257.472H496.926ZM484.046 236.696V240.224C484.046 241.792 483.99 243.341 483.878 244.872C483.804 246.365 483.617 247.989 483.318 249.744C483.132 250.827 482.87 252.021 482.534 253.328C482.236 254.597 481.732 256.016 481.022 257.584H489.422V236.696H484.046ZM501.053 240.616C501.053 240.093 501.146 239.403 501.333 238.544C501.519 237.648 501.893 236.771 502.453 235.912C503.05 235.053 503.871 234.325 504.917 233.728C505.962 233.093 507.343 232.776 509.061 232.776C510.778 232.776 512.159 233.093 513.205 233.728C514.25 234.325 515.053 235.053 515.613 235.912C516.21 236.771 516.602 237.648 516.789 238.544C516.975 239.403 517.069 240.075 517.069 240.56V253.496C517.069 254.056 516.975 254.784 516.789 255.68C516.602 256.576 516.21 257.453 515.613 258.312C515.053 259.171 514.25 259.917 513.205 260.552C512.159 261.149 510.778 261.448 509.061 261.448C507.343 261.448 505.962 261.149 504.917 260.552C503.871 259.917 503.05 259.171 502.453 258.312C501.893 257.453 501.519 256.576 501.333 255.68C501.146 254.784 501.053 254.056 501.053 253.496V240.616ZM512.869 241.4C512.869 239.832 512.495 238.693 511.749 237.984C511.002 237.237 510.106 236.864 509.061 236.864C508.015 236.864 507.119 237.237 506.373 237.984C505.626 238.693 505.253 239.832 505.253 241.4V252.824C505.253 254.28 505.57 255.4 506.205 256.184C506.877 256.968 507.829 257.36 509.061 257.36C510.255 257.36 511.189 256.987 511.861 256.24C512.533 255.493 512.869 254.355 512.869 252.824V241.4ZM534.448 245.152V233.224H538.648V245.152H541.112C541.784 245.152 542.325 245.003 542.736 244.704C543.147 244.368 543.464 243.957 543.688 243.472C543.949 242.987 544.117 242.464 544.192 241.904C544.304 241.307 544.397 240.747 544.472 240.224L544.808 237.76C544.92 237.051 545.069 236.397 545.256 235.8C545.443 235.203 545.723 234.699 546.096 234.288C546.507 233.84 547.048 233.504 547.72 233.28C548.429 233.056 549.344 232.944 550.464 232.944H550.968V236.36H550.464C549.717 236.36 549.195 236.64 548.896 237.2C548.597 237.76 548.373 238.563 548.224 239.608L547.888 241.904C547.701 243.099 547.515 244.051 547.328 244.76C547.141 245.469 546.693 246.123 545.984 246.72L550.968 261H546.824L542.456 248.4H538.648V261H534.448V248.4H530.64L526.272 261H522.128L527.112 246.72C526.403 246.123 525.955 245.469 525.768 244.76C525.581 244.051 525.395 243.099 525.208 241.904L524.872 239.608C524.723 238.563 524.499 237.76 524.2 237.2C523.901 236.64 523.379 236.36 522.632 236.36H522.128V232.944H522.632C523.752 232.944 524.648 233.056 525.32 233.28C526.029 233.504 526.571 233.84 526.944 234.288C527.355 234.699 527.653 235.203 527.84 235.8C528.027 236.397 528.176 237.051 528.288 237.76L528.624 240.224C528.699 240.747 528.773 241.307 528.848 241.904C528.96 242.464 529.128 242.987 529.352 243.472C529.613 243.957 529.949 244.368 530.36 244.704C530.771 245.003 531.312 245.152 531.984 245.152H534.448ZM576.77 257.472V266.824H572.85V261H558.066V266.824H554.146V257.472H556.89C557.637 255.792 558.197 254.243 558.57 252.824C558.981 251.405 559.298 249.968 559.522 248.512C559.634 247.691 559.727 246.776 559.802 245.768C559.877 244.723 559.933 243.677 559.97 242.632C560.045 241.549 560.101 240.485 560.138 239.44C560.175 238.357 560.194 237.368 560.194 236.472V233.224H573.466V257.472H576.77ZM563.89 236.696V240.224C563.89 241.792 563.834 243.341 563.722 244.872C563.647 246.365 563.461 247.989 563.162 249.744C562.975 250.827 562.714 252.021 562.378 253.328C562.079 254.597 561.575 256.016 560.866 257.584H569.266V236.696H563.89ZM585.32 233.224V251.648L594.112 236.64V233.224H598.312V261H594.112V243.08L585.32 258.088V261H581.12V233.224H585.32ZM617.054 252.488H621.254V253.608C621.254 254.28 621.123 255.083 620.862 256.016C620.638 256.912 620.208 257.771 619.574 258.592C618.976 259.376 618.155 260.048 617.11 260.608C616.064 261.168 614.739 261.448 613.134 261.448C611.379 261.448 609.979 261.149 608.934 260.552C607.888 259.917 607.067 259.171 606.47 258.312C605.872 257.453 605.48 256.576 605.294 255.68C605.107 254.747 605.014 253.981 605.014 253.384V240.784C605.014 240.224 605.107 239.496 605.294 238.6C605.48 237.667 605.872 236.771 606.47 235.912C607.067 235.053 607.888 234.325 608.934 233.728C609.979 233.093 611.379 232.776 613.134 232.776C614.776 232.776 616.12 233.056 617.166 233.616C618.248 234.176 619.088 234.867 619.686 235.688C620.283 236.509 620.694 237.368 620.918 238.264C621.142 239.123 621.254 239.888 621.254 240.56V241.792H617.054V241.4C617.054 239.832 616.662 238.693 615.878 237.984C615.131 237.237 614.216 236.864 613.134 236.864C612.051 236.864 611.118 237.237 610.334 237.984C609.587 238.693 609.214 239.832 609.214 241.4V252.824C609.214 255.848 610.52 257.36 613.134 257.36C614.366 257.36 615.318 256.987 615.99 256.24C616.699 255.493 617.054 254.355 617.054 252.824V252.488ZM630.93 233.224V244.312H634.682C635.466 244.312 636.306 244.387 637.202 244.536C638.135 244.648 638.994 244.928 639.778 245.376C640.562 245.824 641.215 246.477 641.738 247.336C642.26 248.195 642.522 249.352 642.522 250.808V254.168C642.522 256.632 641.794 258.387 640.338 259.432C638.919 260.477 637.034 261 634.682 261H626.73V233.224H630.93ZM630.93 257.472H634.346C634.794 257.472 635.242 257.416 635.69 257.304C636.175 257.192 636.604 257.005 636.978 256.744C637.388 256.445 637.706 256.072 637.93 255.624C638.191 255.139 638.322 254.541 638.322 253.832V251.536C638.322 250.155 637.892 249.203 637.034 248.68C636.212 248.12 635.316 247.84 634.346 247.84H630.93V257.472ZM661.183 233.224H676.863V261H672.663V236.752H665.383V261H661.183V233.224ZM683.824 233.224H688.024V235.968C688.92 234.773 689.89 233.952 690.936 233.504C692.018 233.019 693.045 232.776 694.016 232.776C695.248 232.776 696.237 232.981 696.984 233.392C697.768 233.803 698.365 234.344 698.776 235.016C699.186 235.651 699.466 236.341 699.616 237.088C699.765 237.835 699.84 238.544 699.84 239.216V255.008C699.84 255.68 699.765 256.389 699.616 257.136C699.466 257.883 699.186 258.592 698.776 259.264C698.365 259.899 697.768 260.421 696.984 260.832C696.237 261.243 695.248 261.448 694.016 261.448C693.045 261.448 692.018 261.224 690.936 260.776C689.89 260.291 688.92 259.451 688.024 258.256V272.424H683.824V233.224ZM692.112 257.36C692.784 257.36 693.344 257.248 693.792 257.024C694.24 256.763 694.594 256.427 694.856 256.016C695.154 255.605 695.36 255.139 695.472 254.616C695.584 254.093 695.64 253.571 695.64 253.048V241.176C695.64 240.653 695.584 240.131 695.472 239.608C695.36 239.085 695.154 238.619 694.856 238.208C694.594 237.797 694.24 237.48 693.792 237.256C693.344 236.995 692.784 236.864 692.112 236.864C691.253 236.864 690.562 237.051 690.04 237.424C689.517 237.797 689.106 238.245 688.808 238.768C688.509 239.291 688.304 239.851 688.192 240.448C688.08 241.008 688.024 241.512 688.024 241.96V252.264C688.024 252.712 688.08 253.235 688.192 253.832C688.304 254.392 688.509 254.933 688.808 255.456C689.106 255.979 689.517 256.427 690.04 256.8C690.562 257.173 691.253 257.36 692.112 257.36ZM706.568 240.616C706.568 240.093 706.662 239.403 706.848 238.544C707.035 237.648 707.408 236.771 707.968 235.912C708.566 235.053 709.387 234.325 710.432 233.728C711.478 233.093 712.859 232.776 714.576 232.776C716.294 232.776 717.675 233.093 718.72 233.728C719.766 234.325 720.568 235.053 721.128 235.912C721.726 236.771 722.118 237.648 722.304 238.544C722.491 239.403 722.584 240.075 722.584 240.56V253.496C722.584 254.056 722.491 254.784 722.304 255.68C722.118 256.576 721.726 257.453 721.128 258.312C720.568 259.171 719.766 259.917 718.72 260.552C717.675 261.149 716.294 261.448 714.576 261.448C712.859 261.448 711.478 261.149 710.432 260.552C709.387 259.917 708.566 259.171 707.968 258.312C707.408 257.453 707.035 256.576 706.848 255.68C706.662 254.784 706.568 254.056 706.568 253.496V240.616ZM718.384 241.4C718.384 239.832 718.011 238.693 717.264 237.984C716.518 237.237 715.622 236.864 714.576 236.864C713.531 236.864 712.635 237.237 711.888 237.984C711.142 238.693 710.768 239.832 710.768 241.4V252.824C710.768 254.28 711.086 255.4 711.72 256.184C712.392 256.968 713.344 257.36 714.576 257.36C715.771 257.36 716.704 256.987 717.376 256.24C718.048 255.493 718.384 254.355 718.384 252.824V241.4ZM736.66 245.04C737.332 245.04 737.873 244.891 738.284 244.592C738.694 244.293 739.012 243.901 739.236 243.416C739.497 242.931 739.665 242.408 739.74 241.848C739.852 241.288 739.945 240.747 740.02 240.224L740.356 237.76C740.468 237.051 740.617 236.397 740.804 235.8C740.99 235.203 741.27 234.699 741.644 234.288C742.054 233.84 742.596 233.504 743.268 233.28C743.977 233.056 744.892 232.944 746.012 232.944H746.628V236.472H746.012C745.265 236.472 744.742 236.733 744.444 237.256C744.145 237.779 743.921 238.563 743.772 239.608L743.436 241.904C743.249 243.099 743.062 244.051 742.876 244.76C742.689 245.469 742.241 246.123 741.532 246.72L746.516 261H742.372L738.004 248.4H733.524V261H729.324V233.224H733.524V245.04H736.66ZM751.964 233.224H756.164V235.968C757.06 234.773 758.031 233.952 759.076 233.504C760.159 233.019 761.186 232.776 762.156 232.776C763.388 232.776 764.378 232.981 765.124 233.392C765.908 233.803 766.506 234.344 766.916 235.016C767.327 235.651 767.607 236.341 767.756 237.088C767.906 237.835 767.98 238.544 767.98 239.216V255.008C767.98 255.68 767.906 256.389 767.756 257.136C767.607 257.883 767.327 258.592 766.916 259.264C766.506 259.899 765.908 260.421 765.124 260.832C764.378 261.243 763.388 261.448 762.156 261.448C761.186 261.448 760.159 261.224 759.076 260.776C758.031 260.291 757.06 259.451 756.164 258.256V272.424H751.964V233.224ZM760.252 257.36C760.924 257.36 761.484 257.248 761.932 257.024C762.38 256.763 762.735 256.427 762.996 256.016C763.295 255.605 763.5 255.139 763.612 254.616C763.724 254.093 763.78 253.571 763.78 253.048V241.176C763.78 240.653 763.724 240.131 763.612 239.608C763.5 239.085 763.295 238.619 762.996 238.208C762.735 237.797 762.38 237.48 761.932 237.256C761.484 236.995 760.924 236.864 760.252 236.864C759.394 236.864 758.703 237.051 758.18 237.424C757.658 237.797 757.247 238.245 756.948 238.768C756.65 239.291 756.444 239.851 756.332 240.448C756.22 241.008 756.164 241.512 756.164 241.96V252.264C756.164 252.712 756.22 253.235 756.332 253.832C756.444 254.392 756.65 254.933 756.948 255.456C757.247 255.979 757.658 256.427 758.18 256.8C758.703 257.173 759.394 257.36 760.252 257.36ZM783.053 265.928C782.754 267.123 782.4 268.131 781.989 268.952C781.578 269.811 781.074 270.483 780.477 270.968C779.917 271.491 779.226 271.864 778.405 272.088C777.621 272.312 776.688 272.424 775.605 272.424H774.653V268.616H775.437C776.744 268.616 777.677 268.243 778.237 267.496C778.797 266.749 779.282 265.555 779.693 263.912L780.477 260.608L772.301 233.224H776.725L782.325 253.44H782.437L786.693 233.224H790.949L783.053 265.928ZM803.713 236.752V261H799.513V236.752H793.633V233.224H809.593V236.752H803.713ZM821.425 245.04C822.097 245.04 822.639 244.891 823.049 244.592C823.46 244.293 823.777 243.901 824.001 243.416C824.263 242.931 824.431 242.408 824.505 241.848C824.617 241.288 824.711 240.747 824.785 240.224L825.121 237.76C825.233 237.051 825.383 236.397 825.569 235.8C825.756 235.203 826.036 234.699 826.409 234.288C826.82 233.84 827.361 233.504 828.033 233.28C828.743 233.056 829.657 232.944 830.777 232.944H831.393V236.472H830.777C830.031 236.472 829.508 236.733 829.209 237.256C828.911 237.779 828.687 238.563 828.537 239.608L828.201 241.904C828.015 243.099 827.828 244.051 827.641 244.76C827.455 245.469 827.007 246.123 826.297 246.72L831.281 261H827.137L822.769 248.4H818.289V261H814.089V233.224H818.289V245.04H821.425ZM840.93 233.224V251.648L849.722 236.64V233.224H853.922V261H849.722V243.08L840.93 258.088V261H836.73V233.224H840.93ZM175.465 300.224V318.648L184.257 303.64V300.224H188.457V328H184.257V310.08L175.465 325.088V328H171.265V300.224H175.465ZM208.452 300.224H212.652V312.096H220.268V300.224H224.468V328H220.268V315.68H212.652V328H208.452V300.224ZM242.957 325.256H242.901C242.565 325.667 242.211 326.059 241.837 326.432C241.464 326.805 241.035 327.141 240.549 327.44C240.064 327.739 239.504 327.981 238.869 328.168C238.272 328.355 237.525 328.448 236.629 328.448C235.509 328.448 234.576 328.261 233.829 327.888C233.12 327.477 232.541 326.917 232.093 326.208C231.683 325.499 231.384 324.677 231.197 323.744C231.011 322.811 230.917 321.784 230.917 320.664C230.917 319.208 231.048 317.92 231.309 316.8C231.571 315.643 232.019 314.672 232.653 313.888C233.288 313.104 234.109 312.507 235.117 312.096C236.163 311.685 237.469 311.48 239.037 311.48C239.336 311.48 239.765 311.499 240.325 311.536C240.885 311.536 241.763 311.592 242.957 311.704V307.616C242.957 307.243 242.883 306.832 242.733 306.384C242.584 305.936 242.341 305.525 242.005 305.152C241.707 304.779 241.315 304.48 240.829 304.256C240.344 303.995 239.747 303.864 239.037 303.864C238.664 303.864 238.272 303.92 237.861 304.032C237.488 304.107 237.115 304.275 236.741 304.536C236.405 304.797 236.088 305.152 235.789 305.6C235.528 306.048 235.341 306.608 235.229 307.28H231.197C231.197 306.123 231.403 305.077 231.813 304.144C232.261 303.211 232.84 302.427 233.549 301.792C234.296 301.12 235.155 300.616 236.125 300.28C237.133 299.944 238.197 299.776 239.317 299.776C240.923 299.776 242.229 300.056 243.237 300.616C244.283 301.139 245.085 301.811 245.645 302.632C246.243 303.416 246.635 304.312 246.821 305.32C247.045 306.291 247.157 307.224 247.157 308.12V328H242.957V325.256ZM242.957 314.784C242.36 314.709 241.819 314.653 241.333 314.616C240.848 314.541 240.437 314.504 240.101 314.504C239.504 314.504 238.907 314.597 238.309 314.784C237.712 314.933 237.171 315.232 236.685 315.68C236.237 316.091 235.864 316.651 235.565 317.36C235.267 318.032 235.117 318.872 235.117 319.88C235.117 321.859 235.416 323.184 236.013 323.856C236.611 324.528 237.507 324.864 238.701 324.864C239.149 324.864 239.616 324.733 240.101 324.472C240.587 324.211 241.035 323.837 241.445 323.352C241.893 322.867 242.248 322.325 242.509 321.728C242.808 321.093 242.957 320.403 242.957 319.656V314.784ZM254.117 304.76C254.117 303.379 254.191 301.979 254.341 300.56C254.527 299.104 254.994 297.816 255.741 296.696C256.375 295.725 257.066 294.979 257.813 294.456C258.597 293.933 259.381 293.523 260.165 293.224C260.65 293.037 261.135 292.869 261.621 292.72C262.143 292.533 262.61 292.365 263.021 292.216C264.962 291.544 265.933 290.555 265.933 289.248V288.8H269.629V289.528C269.629 290.013 269.61 290.555 269.573 291.152C269.535 291.712 269.405 292.216 269.181 292.664C268.77 293.411 268.191 293.971 267.445 294.344C266.735 294.68 265.858 295.016 264.813 295.352L262.013 296.304C261.49 296.491 260.911 296.752 260.277 297.088C259.679 297.387 259.157 297.835 258.709 298.432C258.298 298.992 257.981 299.645 257.757 300.392C257.57 301.139 257.477 301.829 257.477 302.464V303.864H257.645C258.167 302.893 258.933 302.053 259.941 301.344C260.986 300.597 262.405 300.224 264.197 300.224C265.13 300.224 265.951 300.373 266.661 300.672C267.37 300.971 267.93 301.325 268.341 301.736C268.863 302.221 269.293 302.837 269.629 303.584C269.965 304.293 270.133 305.115 270.133 306.048V319.488C270.133 320.011 270.114 320.589 270.077 321.224C270.039 321.821 269.927 322.437 269.741 323.072C269.591 323.707 269.33 324.341 268.957 324.976C268.621 325.573 268.154 326.115 267.557 326.6C266.81 327.235 265.951 327.701 264.981 328C264.047 328.299 263.095 328.448 262.125 328.448C261.154 328.448 260.183 328.299 259.213 328C258.279 327.739 257.439 327.291 256.693 326.656C256.095 326.171 255.61 325.629 255.237 325.032C254.901 324.397 254.639 323.763 254.453 323.128C254.303 322.456 254.21 321.821 254.173 321.224C254.135 320.589 254.117 320.011 254.117 319.488V304.76ZM265.933 308.4C265.933 307.653 265.821 306.981 265.597 306.384C265.373 305.787 265.111 305.32 264.813 304.984C264.066 304.237 263.17 303.864 262.125 303.864C261.602 303.864 261.098 303.976 260.613 304.2C260.165 304.424 259.773 304.704 259.437 305.04C259.138 305.376 258.877 305.88 258.653 306.552C258.429 307.187 258.317 307.877 258.317 308.624V319.824C258.317 320.608 258.429 321.299 258.653 321.896C258.877 322.493 259.138 322.979 259.437 323.352C259.735 323.651 260.109 323.893 260.557 324.08C261.042 324.267 261.565 324.36 262.125 324.36C262.685 324.36 263.189 324.267 263.637 324.08C264.122 323.893 264.514 323.651 264.813 323.352C265.111 322.979 265.373 322.493 265.597 321.896C265.821 321.299 265.933 320.608 265.933 319.824V308.4ZM292.715 328H288.515V303.752H283.195L283.083 307C283.083 307.485 283.064 308.232 283.027 309.24C282.989 310.248 282.933 311.368 282.859 312.6C282.784 313.795 282.691 315.027 282.579 316.296C282.504 317.528 282.392 318.648 282.243 319.656C282.056 320.851 281.795 321.952 281.459 322.96C281.16 323.968 280.712 324.845 280.115 325.592C279.517 326.339 278.771 326.936 277.875 327.384C276.979 327.795 275.859 328 274.515 328H273.843V324.528H274.347C275.243 324.528 275.971 324.267 276.531 323.744C277.091 323.221 277.52 322.531 277.819 321.672C278.155 320.776 278.379 319.787 278.491 318.704C278.64 317.584 278.771 316.464 278.883 315.344C278.92 314.784 278.957 314.112 278.995 313.328C279.032 312.507 279.051 311.685 279.051 310.864C279.088 310.043 279.125 309.277 279.163 308.568C279.2 307.821 279.219 307.243 279.219 306.832L279.387 300.224H292.715V328ZM308.743 315.68H303.871V328H299.671V300.224H303.871V312.096H308.743V307.616C308.743 307.093 308.837 306.403 309.023 305.544C309.21 304.648 309.583 303.771 310.143 302.912C310.703 302.053 311.506 301.325 312.551 300.728C313.597 300.093 314.978 299.776 316.695 299.776C318.413 299.776 319.794 300.093 320.839 300.728C321.885 301.325 322.687 302.053 323.247 302.912C323.845 303.771 324.237 304.648 324.423 305.544C324.61 306.403 324.703 307.075 324.703 307.56V320.496C324.703 321.056 324.61 321.784 324.423 322.68C324.237 323.576 323.845 324.453 323.247 325.312C322.687 326.171 321.885 326.917 320.839 327.552C319.794 328.149 318.413 328.448 316.695 328.448C314.978 328.448 313.597 328.149 312.551 327.552C311.506 326.917 310.703 326.171 310.143 325.312C309.583 324.453 309.21 323.576 309.023 322.68C308.837 321.784 308.743 321.056 308.743 320.496V315.68ZM320.503 308.4C320.503 306.832 320.13 305.693 319.383 304.984C318.637 304.237 317.741 303.864 316.695 303.864C315.65 303.864 314.754 304.237 314.007 304.984C313.261 305.693 312.887 306.832 312.887 308.4V319.824C312.887 321.28 313.205 322.4 313.839 323.184C314.511 323.968 315.463 324.36 316.695 324.36C317.89 324.36 318.823 323.987 319.495 323.24C320.167 322.493 320.503 321.355 320.503 319.824V308.4ZM351.157 324.472V333.824H347.237V328H332.453V333.824H328.533V324.472H331.277C332.023 322.792 332.583 321.243 332.957 319.824C333.367 318.405 333.685 316.968 333.909 315.512C334.021 314.691 334.114 313.776 334.189 312.768C334.263 311.723 334.319 310.677 334.357 309.632C334.431 308.549 334.487 307.485 334.525 306.44C334.562 305.357 334.581 304.368 334.581 303.472V300.224H347.853V324.472H351.157ZM338.277 303.696V307.224C338.277 308.792 338.221 310.341 338.109 311.872C338.034 313.365 337.847 314.989 337.549 316.744C337.362 317.827 337.101 319.021 336.765 320.328C336.466 321.597 335.962 323.016 335.253 324.584H343.653V303.696H338.277ZM367.043 325.256H366.987C366.651 325.667 366.296 326.059 365.923 326.432C365.55 326.805 365.12 327.141 364.635 327.44C364.15 327.739 363.59 327.981 362.955 328.168C362.358 328.355 361.611 328.448 360.715 328.448C359.595 328.448 358.662 328.261 357.915 327.888C357.206 327.477 356.627 326.917 356.179 326.208C355.768 325.499 355.47 324.677 355.283 323.744C355.096 322.811 355.003 321.784 355.003 320.664C355.003 319.208 355.134 317.92 355.395 316.8C355.656 315.643 356.104 314.672 356.739 313.888C357.374 313.104 358.195 312.507 359.203 312.096C360.248 311.685 361.555 311.48 363.123 311.48C363.422 311.48 363.851 311.499 364.411 311.536C364.971 311.536 365.848 311.592 367.043 311.704V307.616C367.043 307.243 366.968 306.832 366.819 306.384C366.67 305.936 366.427 305.525 366.091 305.152C365.792 304.779 365.4 304.48 364.915 304.256C364.43 303.995 363.832 303.864 363.123 303.864C362.75 303.864 362.358 303.92 361.947 304.032C361.574 304.107 361.2 304.275 360.827 304.536C360.491 304.797 360.174 305.152 359.875 305.6C359.614 306.048 359.427 306.608 359.315 307.28H355.283C355.283 306.123 355.488 305.077 355.899 304.144C356.347 303.211 356.926 302.427 357.635 301.792C358.382 301.12 359.24 300.616 360.211 300.28C361.219 299.944 362.283 299.776 363.403 299.776C365.008 299.776 366.315 300.056 367.323 300.616C368.368 301.139 369.171 301.811 369.731 302.632C370.328 303.416 370.72 304.312 370.907 305.32C371.131 306.291 371.243 307.224 371.243 308.12V328H367.043V325.256ZM367.043 314.784C366.446 314.709 365.904 314.653 365.419 314.616C364.934 314.541 364.523 314.504 364.187 314.504C363.59 314.504 362.992 314.597 362.395 314.784C361.798 314.933 361.256 315.232 360.771 315.68C360.323 316.091 359.95 316.651 359.651 317.36C359.352 318.032 359.203 318.872 359.203 319.88C359.203 321.859 359.502 323.184 360.099 323.856C360.696 324.528 361.592 324.864 362.787 324.864C363.235 324.864 363.702 324.733 364.187 324.472C364.672 324.211 365.12 323.837 365.531 323.352C365.979 322.867 366.334 322.325 366.595 321.728C366.894 321.093 367.043 320.403 367.043 319.656V314.784ZM382.402 300.224V318.648L391.194 303.64V300.224H395.394V328H391.194V310.08L382.402 325.088V328H378.202V300.224H382.402ZM389.29 289.696H392.706V290.256C392.706 290.965 392.613 291.731 392.426 292.552C392.24 293.336 391.829 294.027 391.194 294.624C390.56 295.259 389.813 295.651 388.954 295.8C388.133 295.949 387.405 296.024 386.77 296.024C386.136 296.024 385.389 295.949 384.53 295.8C383.709 295.651 382.981 295.259 382.346 294.624C381.712 294.027 381.301 293.336 381.114 292.552C380.928 291.731 380.834 290.965 380.834 290.256V289.696H384.25V290.256C384.25 290.555 384.269 290.872 384.306 291.208C384.381 291.544 384.493 291.861 384.642 292.16C384.829 292.459 385.09 292.72 385.426 292.944C385.762 293.131 386.21 293.224 386.77 293.224C387.33 293.224 387.778 293.131 388.114 292.944C388.45 292.72 388.693 292.459 388.842 292.16C389.029 291.861 389.141 291.544 389.178 291.208C389.253 290.872 389.29 290.555 389.29 290.256V289.696ZM414.102 307.56C414.102 306.888 414.195 306.123 414.382 305.264C414.606 304.368 414.998 303.509 415.558 302.688C416.155 301.867 416.977 301.176 418.022 300.616C419.105 300.056 420.486 299.776 422.166 299.776C424.555 299.776 426.422 300.411 427.766 301.68C429.147 302.949 429.838 304.76 429.838 307.112V308.176C429.838 309.744 429.446 310.957 428.662 311.816C427.915 312.675 427.057 313.272 426.086 313.608C427.057 313.832 427.803 314.187 428.326 314.672C428.886 315.157 429.278 315.68 429.502 316.24C429.763 316.8 429.913 317.36 429.95 317.92C430.025 318.48 430.062 318.928 430.062 319.264V320.944C430.062 323.221 429.315 325.051 427.822 326.432C426.366 327.776 424.425 328.448 421.998 328.448C420.393 328.448 419.067 328.187 418.022 327.664C417.014 327.141 416.211 326.488 415.614 325.704C415.017 324.92 414.606 324.08 414.382 323.184C414.158 322.251 414.046 321.392 414.046 320.608V319.544H418.246V320.16C418.246 321.691 418.563 322.773 419.198 323.408C419.833 324.043 420.766 324.36 421.998 324.36C423.454 324.36 424.462 323.968 425.022 323.184C425.582 322.4 425.862 321.429 425.862 320.272V319.544C425.862 318.013 425.507 316.987 424.798 316.464C424.126 315.941 423.249 315.68 422.166 315.68H420.038V312.208H421.998C423.081 312.208 423.958 311.816 424.63 311.032C425.302 310.211 425.638 309.259 425.638 308.176V307.168C425.638 306.16 425.265 305.357 424.518 304.76C423.809 304.163 423.025 303.864 422.166 303.864C421.009 303.864 420.075 304.219 419.366 304.928C418.657 305.637 418.302 306.776 418.302 308.344V308.736H414.102V307.56ZM448.035 325.256H447.979C447.643 325.667 447.289 326.059 446.915 326.432C446.542 326.805 446.113 327.141 445.627 327.44C445.142 327.739 444.582 327.981 443.947 328.168C443.35 328.355 442.603 328.448 441.707 328.448C440.587 328.448 439.654 328.261 438.907 327.888C438.198 327.477 437.619 326.917 437.171 326.208C436.761 325.499 436.462 324.677 436.275 323.744C436.089 322.811 435.995 321.784 435.995 320.664C435.995 319.208 436.126 317.92 436.387 316.8C436.649 315.643 437.097 314.672 437.731 313.888C438.366 313.104 439.187 312.507 440.195 312.096C441.241 311.685 442.547 311.48 444.115 311.48C444.414 311.48 444.843 311.499 445.403 311.536C445.963 311.536 446.841 311.592 448.035 311.704V307.616C448.035 307.243 447.961 306.832 447.811 306.384C447.662 305.936 447.419 305.525 447.083 305.152C446.785 304.779 446.393 304.48 445.907 304.256C445.422 303.995 444.825 303.864 444.115 303.864C443.742 303.864 443.35 303.92 442.939 304.032C442.566 304.107 442.193 304.275 441.819 304.536C441.483 304.797 441.166 305.152 440.867 305.6C440.606 306.048 440.419 306.608 440.307 307.28H436.275C436.275 306.123 436.481 305.077 436.891 304.144C437.339 303.211 437.918 302.427 438.627 301.792C439.374 301.12 440.233 300.616 441.203 300.28C442.211 299.944 443.275 299.776 444.395 299.776C446.001 299.776 447.307 300.056 448.315 300.616C449.361 301.139 450.163 301.811 450.723 302.632C451.321 303.416 451.713 304.312 451.899 305.32C452.123 306.291 452.235 307.224 452.235 308.12V328H448.035V325.256ZM448.035 314.784C447.438 314.709 446.897 314.653 446.411 314.616C445.926 314.541 445.515 314.504 445.179 314.504C444.582 314.504 443.985 314.597 443.387 314.784C442.79 314.933 442.249 315.232 441.763 315.68C441.315 316.091 440.942 316.651 440.643 317.36C440.345 318.032 440.195 318.872 440.195 319.88C440.195 321.859 440.494 323.184 441.091 323.856C441.689 324.528 442.585 324.864 443.779 324.864C444.227 324.864 444.694 324.733 445.179 324.472C445.665 324.211 446.113 323.837 446.523 323.352C446.971 322.867 447.326 322.325 447.587 321.728C447.886 321.093 448.035 320.403 448.035 319.656V314.784ZM479.881 303.752V328H475.681V303.752H469.801V300.224H485.761V303.752H479.881ZM501.681 320.216H505.881V320.608C505.881 321.28 505.769 322.083 505.545 323.016C505.358 323.912 504.985 324.771 504.425 325.592C503.865 326.376 503.081 327.048 502.073 327.608C501.065 328.168 499.758 328.448 498.153 328.448C496.398 328.448 494.998 328.149 493.953 327.552C492.908 326.917 492.086 326.171 491.489 325.312C490.892 324.453 490.5 323.576 490.313 322.68C490.126 321.747 490.033 320.981 490.033 320.384V307.504C490.033 306.944 490.126 306.235 490.313 305.376C490.5 304.517 490.873 303.677 491.433 302.856C491.993 301.997 492.777 301.269 493.785 300.672C494.83 300.075 496.193 299.776 497.873 299.776C499.516 299.776 500.86 300.075 501.905 300.672C502.988 301.269 503.828 301.997 504.425 302.856C505.022 303.677 505.433 304.555 505.657 305.488C505.881 306.384 505.993 307.131 505.993 307.728V315.68H494.233V320.104C494.233 321.597 494.55 322.68 495.185 323.352C495.857 324.024 496.846 324.36 498.153 324.36C499.385 324.36 500.281 324.024 500.841 323.352C501.401 322.643 501.681 321.709 501.681 320.552V320.216ZM501.793 312.544V307.784C501.793 307.336 501.737 306.888 501.625 306.44C501.513 305.955 501.308 305.525 501.009 305.152C500.71 304.779 500.318 304.48 499.833 304.256C499.348 303.995 498.75 303.864 498.041 303.864C497.294 303.864 496.678 303.995 496.193 304.256C495.708 304.517 495.316 304.853 495.017 305.264C494.718 305.675 494.513 306.123 494.401 306.608C494.289 307.093 494.233 307.56 494.233 308.008V312.544H501.793ZM523.155 317.36L529.651 300.224H533.683V328H529.707V309.632L524.051 324.024H522.147L516.491 309.632V328H512.515V300.224H516.491L523.155 317.36ZM545.328 323.24V328.504L540.512 332.816V323.24H545.328ZM573.117 312.04C573.789 312.04 574.33 311.891 574.741 311.592C575.151 311.293 575.469 310.901 575.693 310.416C575.954 309.931 576.122 309.408 576.197 308.848C576.309 308.288 576.402 307.747 576.477 307.224L576.813 304.76C576.925 304.051 577.074 303.397 577.261 302.8C577.447 302.203 577.727 301.699 578.101 301.288C578.511 300.84 579.053 300.504 579.725 300.28C580.434 300.056 581.349 299.944 582.469 299.944H583.085V303.472H582.469C581.722 303.472 581.199 303.733 580.901 304.256C580.602 304.779 580.378 305.563 580.229 306.608L579.893 308.904C579.706 310.099 579.519 311.051 579.333 311.76C579.146 312.469 578.698 313.123 577.989 313.72L582.973 328H578.829L574.461 315.4H569.981V328H565.781V300.224H569.981V312.04H573.117ZM599.957 325.256H599.901C599.565 325.667 599.211 326.059 598.837 326.432C598.464 326.805 598.035 327.141 597.549 327.44C597.064 327.739 596.504 327.981 595.869 328.168C595.272 328.355 594.525 328.448 593.629 328.448C592.509 328.448 591.576 328.261 590.829 327.888C590.12 327.477 589.541 326.917 589.093 326.208C588.683 325.499 588.384 324.677 588.197 323.744C588.011 322.811 587.917 321.784 587.917 320.664C587.917 319.208 588.048 317.92 588.309 316.8C588.571 315.643 589.019 314.672 589.653 313.888C590.288 313.104 591.109 312.507 592.117 312.096C593.163 311.685 594.469 311.48 596.037 311.48C596.336 311.48 596.765 311.499 597.325 311.536C597.885 311.536 598.763 311.592 599.957 311.704V307.616C599.957 307.243 599.883 306.832 599.733 306.384C599.584 305.936 599.341 305.525 599.005 305.152C598.707 304.779 598.315 304.48 597.829 304.256C597.344 303.995 596.747 303.864 596.037 303.864C595.664 303.864 595.272 303.92 594.861 304.032C594.488 304.107 594.115 304.275 593.741 304.536C593.405 304.797 593.088 305.152 592.789 305.6C592.528 306.048 592.341 306.608 592.229 307.28H588.197C588.197 306.123 588.403 305.077 588.813 304.144C589.261 303.211 589.84 302.427 590.549 301.792C591.296 301.12 592.155 300.616 593.125 300.28C594.133 299.944 595.197 299.776 596.317 299.776C597.923 299.776 599.229 300.056 600.237 300.616C601.283 301.139 602.085 301.811 602.645 302.632C603.243 303.416 603.635 304.312 603.821 305.32C604.045 306.291 604.157 307.224 604.157 308.12V328H599.957V325.256ZM599.957 314.784C599.36 314.709 598.819 314.653 598.333 314.616C597.848 314.541 597.437 314.504 597.101 314.504C596.504 314.504 595.907 314.597 595.309 314.784C594.712 314.933 594.171 315.232 593.685 315.68C593.237 316.091 592.864 316.651 592.565 317.36C592.267 318.032 592.117 318.872 592.117 319.88C592.117 321.859 592.416 323.184 593.013 323.856C593.611 324.528 594.507 324.864 595.701 324.864C596.149 324.864 596.616 324.733 597.101 324.472C597.587 324.211 598.035 323.837 598.445 323.352C598.893 322.867 599.248 322.325 599.509 321.728C599.808 321.093 599.957 320.403 599.957 319.656V314.784ZM618.453 312.04C619.125 312.04 619.666 311.891 620.077 311.592C620.487 311.293 620.805 310.901 621.029 310.416C621.29 309.931 621.458 309.408 621.533 308.848C621.645 308.288 621.738 307.747 621.813 307.224L622.149 304.76C622.261 304.051 622.41 303.397 622.597 302.8C622.783 302.203 623.063 301.699 623.437 301.288C623.847 300.84 624.389 300.504 625.061 300.28C625.77 300.056 626.685 299.944 627.805 299.944H628.421V303.472H627.805C627.058 303.472 626.535 303.733 626.237 304.256C625.938 304.779 625.714 305.563 625.565 306.608L625.229 308.904C625.042 310.099 624.855 311.051 624.669 311.76C624.482 312.469 624.034 313.123 623.325 313.72L628.309 328H624.165L619.797 315.4H615.317V328H611.117V300.224H615.317V312.04H618.453ZM654.163 312.04C654.835 312.04 655.377 311.891 655.787 311.592C656.198 311.293 656.515 310.901 656.739 310.416C657.001 309.931 657.169 309.408 657.243 308.848C657.355 308.288 657.449 307.747 657.523 307.224L657.859 304.76C657.971 304.051 658.121 303.397 658.307 302.8C658.494 302.203 658.774 301.699 659.147 301.288C659.558 300.84 660.099 300.504 660.771 300.28C661.481 300.056 662.395 299.944 663.515 299.944H664.131V303.472H663.515C662.769 303.472 662.246 303.733 661.947 304.256C661.649 304.779 661.425 305.563 661.275 306.608L660.939 308.904C660.753 310.099 660.566 311.051 660.379 311.76C660.193 312.469 659.745 313.123 659.035 313.72L664.019 328H659.875L655.507 315.4H651.027V328H646.827V300.224H651.027V312.04H654.163ZM669.244 307.616C669.244 307.093 669.337 306.403 669.524 305.544C669.711 304.648 670.084 303.771 670.644 302.912C671.241 302.053 672.063 301.325 673.108 300.728C674.153 300.093 675.535 299.776 677.252 299.776C678.969 299.776 680.351 300.093 681.396 300.728C682.441 301.325 683.244 302.053 683.804 302.912C684.401 303.771 684.793 304.648 684.98 305.544C685.167 306.403 685.26 307.075 685.26 307.56V320.496C685.26 321.056 685.167 321.784 684.98 322.68C684.793 323.576 684.401 324.453 683.804 325.312C683.244 326.171 682.441 326.917 681.396 327.552C680.351 328.149 678.969 328.448 677.252 328.448C675.535 328.448 674.153 328.149 673.108 327.552C672.063 326.917 671.241 326.171 670.644 325.312C670.084 324.453 669.711 323.576 669.524 322.68C669.337 321.784 669.244 321.056 669.244 320.496V307.616ZM681.06 308.4C681.06 306.832 680.687 305.693 679.94 304.984C679.193 304.237 678.297 303.864 677.252 303.864C676.207 303.864 675.311 304.237 674.564 304.984C673.817 305.693 673.444 306.832 673.444 308.4V319.824C673.444 321.28 673.761 322.4 674.396 323.184C675.068 323.968 676.02 324.36 677.252 324.36C678.447 324.36 679.38 323.987 680.052 323.24C680.724 322.493 681.06 321.355 681.06 319.824V308.4ZM691.999 300.224H707.679V328H703.479V303.752H696.199V328H691.999V300.224ZM734.688 300.224H738.888V328H734.688V300.224ZM718.84 300.224V311.312H722.592C723.376 311.312 724.216 311.387 725.112 311.536C726.045 311.648 726.904 311.928 727.688 312.376C728.472 312.824 729.125 313.477 729.648 314.336C730.171 315.195 730.432 316.352 730.432 317.808V321.168C730.432 323.632 729.704 325.387 728.248 326.432C726.829 327.477 724.944 328 722.592 328H714.64V300.224H718.84ZM718.84 324.472H722.256C722.704 324.472 723.152 324.416 723.6 324.304C724.085 324.192 724.515 324.005 724.888 323.744C725.299 323.445 725.616 323.072 725.84 322.624C726.101 322.139 726.232 321.541 726.232 320.832V318.536C726.232 317.155 725.803 316.203 724.944 315.68C724.123 315.12 723.227 314.84 722.256 314.84H718.84V324.472ZM753.428 303.752V328H749.228V303.752H743.348V300.224H759.308V303.752H753.428ZM774.52 325.256H774.464C774.128 325.667 773.773 326.059 773.4 326.432C773.026 326.805 772.597 327.141 772.112 327.44C771.626 327.739 771.066 327.981 770.432 328.168C769.834 328.355 769.088 328.448 768.192 328.448C767.072 328.448 766.138 328.261 765.392 327.888C764.682 327.477 764.104 326.917 763.656 326.208C763.245 325.499 762.946 324.677 762.76 323.744C762.573 322.811 762.48 321.784 762.48 320.664C762.48 319.208 762.61 317.92 762.872 316.8C763.133 315.643 763.581 314.672 764.216 313.888C764.85 313.104 765.672 312.507 766.68 312.096C767.725 311.685 769.032 311.48 770.6 311.48C770.898 311.48 771.328 311.499 771.888 311.536C772.448 311.536 773.325 311.592 774.52 311.704V307.616C774.52 307.243 774.445 306.832 774.296 306.384C774.146 305.936 773.904 305.525 773.568 305.152C773.269 304.779 772.877 304.48 772.392 304.256C771.906 303.995 771.309 303.864 770.6 303.864C770.226 303.864 769.834 303.92 769.424 304.032C769.05 304.107 768.677 304.275 768.304 304.536C767.968 304.797 767.65 305.152 767.352 305.6C767.09 306.048 766.904 306.608 766.792 307.28H762.76C762.76 306.123 762.965 305.077 763.376 304.144C763.824 303.211 764.402 302.427 765.112 301.792C765.858 301.12 766.717 300.616 767.688 300.28C768.696 299.944 769.76 299.776 770.88 299.776C772.485 299.776 773.792 300.056 774.8 300.616C775.845 301.139 776.648 301.811 777.208 302.632C777.805 303.416 778.197 304.312 778.384 305.32C778.608 306.291 778.72 307.224 778.72 308.12V328H774.52V325.256ZM774.52 314.784C773.922 314.709 773.381 314.653 772.896 314.616C772.41 314.541 772 314.504 771.664 314.504C771.066 314.504 770.469 314.597 769.872 314.784C769.274 314.933 768.733 315.232 768.248 315.68C767.8 316.091 767.426 316.651 767.128 317.36C766.829 318.032 766.68 318.872 766.68 319.88C766.68 321.859 766.978 323.184 767.576 323.856C768.173 324.528 769.069 324.864 770.264 324.864C770.712 324.864 771.178 324.733 771.664 324.472C772.149 324.211 772.597 323.837 773.008 323.352C773.456 322.867 773.81 322.325 774.072 321.728C774.37 321.093 774.52 320.403 774.52 319.656V314.784ZM297.156 367.224H301.356V369.968C302.252 368.773 303.222 367.952 304.268 367.504C305.35 367.019 306.377 366.776 307.348 366.776C308.58 366.776 309.569 366.981 310.316 367.392C311.1 367.803 311.697 368.344 312.108 369.016C312.518 369.651 312.798 370.341 312.948 371.088C313.097 371.835 313.172 372.544 313.172 373.216V389.008C313.172 389.68 313.097 390.389 312.948 391.136C312.798 391.883 312.518 392.592 312.108 393.264C311.697 393.899 311.1 394.421 310.316 394.832C309.569 395.243 308.58 395.448 307.348 395.448C306.377 395.448 305.35 395.224 304.268 394.776C303.222 394.291 302.252 393.451 301.356 392.256V406.424H297.156V367.224ZM305.444 391.36C306.116 391.36 306.676 391.248 307.124 391.024C307.572 390.763 307.926 390.427 308.188 390.016C308.486 389.605 308.692 389.139 308.804 388.616C308.916 388.093 308.972 387.571 308.972 387.048V375.176C308.972 374.653 308.916 374.131 308.804 373.608C308.692 373.085 308.486 372.619 308.188 372.208C307.926 371.797 307.572 371.48 307.124 371.256C306.676 370.995 306.116 370.864 305.444 370.864C304.585 370.864 303.894 371.051 303.372 371.424C302.849 371.797 302.438 372.245 302.14 372.768C301.841 373.291 301.636 373.851 301.524 374.448C301.412 375.008 301.356 375.512 301.356 375.96V386.264C301.356 386.712 301.412 387.235 301.524 387.832C301.636 388.392 301.841 388.933 302.14 389.456C302.438 389.979 302.849 390.427 303.372 390.8C303.894 391.173 304.585 391.36 305.444 391.36ZM331.66 392.256H331.604C331.268 392.667 330.914 393.059 330.54 393.432C330.167 393.805 329.738 394.141 329.252 394.44C328.767 394.739 328.207 394.981 327.572 395.168C326.975 395.355 326.228 395.448 325.332 395.448C324.212 395.448 323.279 395.261 322.532 394.888C321.823 394.477 321.244 393.917 320.796 393.208C320.386 392.499 320.087 391.677 319.9 390.744C319.714 389.811 319.62 388.784 319.62 387.664C319.62 386.208 319.751 384.92 320.012 383.8C320.274 382.643 320.722 381.672 321.356 380.888C321.991 380.104 322.812 379.507 323.82 379.096C324.866 378.685 326.172 378.48 327.74 378.48C328.039 378.48 328.468 378.499 329.028 378.536C329.588 378.536 330.466 378.592 331.66 378.704V374.616C331.66 374.243 331.586 373.832 331.436 373.384C331.287 372.936 331.044 372.525 330.708 372.152C330.41 371.779 330.018 371.48 329.532 371.256C329.047 370.995 328.45 370.864 327.74 370.864C327.367 370.864 326.975 370.92 326.564 371.032C326.191 371.107 325.818 371.275 325.444 371.536C325.108 371.797 324.791 372.152 324.492 372.6C324.231 373.048 324.044 373.608 323.932 374.28H319.9C319.9 373.123 320.106 372.077 320.516 371.144C320.964 370.211 321.543 369.427 322.252 368.792C322.999 368.12 323.858 367.616 324.828 367.28C325.836 366.944 326.9 366.776 328.02 366.776C329.626 366.776 330.932 367.056 331.94 367.616C332.986 368.139 333.788 368.811 334.348 369.632C334.946 370.416 335.338 371.312 335.524 372.32C335.748 373.291 335.86 374.224 335.86 375.12V395H331.66V392.256ZM331.66 381.784C331.063 381.709 330.522 381.653 330.036 381.616C329.551 381.541 329.14 381.504 328.804 381.504C328.207 381.504 327.61 381.597 327.012 381.784C326.415 381.933 325.874 382.232 325.388 382.68C324.94 383.091 324.567 383.651 324.268 384.36C323.97 385.032 323.82 385.872 323.82 386.88C323.82 388.859 324.119 390.184 324.716 390.856C325.314 391.528 326.21 391.864 327.404 391.864C327.852 391.864 328.319 391.733 328.804 391.472C329.29 391.211 329.738 390.837 330.148 390.352C330.596 389.867 330.951 389.325 331.212 388.728C331.511 388.093 331.66 387.403 331.66 386.656V381.784ZM341.532 374.56C341.532 373.888 341.625 373.123 341.812 372.264C342.036 371.368 342.428 370.509 342.988 369.688C343.585 368.867 344.406 368.176 345.452 367.616C346.534 367.056 347.916 366.776 349.596 366.776C351.985 366.776 353.852 367.411 355.196 368.68C356.577 369.949 357.268 371.76 357.268 374.112V375.176C357.268 376.744 356.876 377.957 356.092 378.816C355.345 379.675 354.486 380.272 353.516 380.608C354.486 380.832 355.233 381.187 355.756 381.672C356.316 382.157 356.708 382.68 356.932 383.24C357.193 383.8 357.342 384.36 357.38 384.92C357.454 385.48 357.492 385.928 357.492 386.264V387.944C357.492 390.221 356.745 392.051 355.252 393.432C353.796 394.776 351.854 395.448 349.428 395.448C347.822 395.448 346.497 395.187 345.452 394.664C344.444 394.141 343.641 393.488 343.044 392.704C342.446 391.92 342.036 391.08 341.812 390.184C341.588 389.251 341.476 388.392 341.476 387.608V386.544H345.676V387.16C345.676 388.691 345.993 389.773 346.628 390.408C347.262 391.043 348.196 391.36 349.428 391.36C350.884 391.36 351.892 390.968 352.452 390.184C353.012 389.4 353.292 388.429 353.292 387.272V386.544C353.292 385.013 352.937 383.987 352.228 383.464C351.556 382.941 350.678 382.68 349.596 382.68H347.468V379.208H349.428C350.51 379.208 351.388 378.816 352.06 378.032C352.732 377.211 353.068 376.259 353.068 375.176V374.168C353.068 373.16 352.694 372.357 351.948 371.76C351.238 371.163 350.454 370.864 349.596 370.864C348.438 370.864 347.505 371.219 346.796 371.928C346.086 372.637 345.732 373.776 345.732 375.344V375.736H341.532V374.56ZM372.049 399.928C371.75 401.123 371.396 402.131 370.985 402.952C370.574 403.811 370.07 404.483 369.473 404.968C368.913 405.491 368.222 405.864 367.401 406.088C366.617 406.312 365.684 406.424 364.601 406.424H363.649V402.616H364.433C365.74 402.616 366.673 402.243 367.233 401.496C367.793 400.749 368.278 399.555 368.689 397.912L369.473 394.608L361.297 367.224H365.721L371.321 387.44H371.433L375.689 367.224H379.945L372.049 399.928ZM395.559 383.296C394.588 383.781 393.617 384.099 392.647 384.248C391.676 384.36 390.78 384.416 389.959 384.416C388.092 384.416 386.636 383.949 385.591 383.016C384.545 382.083 384.023 380.44 384.023 378.088V367.224H388.223V377.192C388.223 379.619 389.436 380.832 391.863 380.832C392.609 380.832 393.281 380.739 393.879 380.552C394.476 380.328 395.036 380.067 395.559 379.768V367.224H399.759V395H395.559V383.296ZM410.895 367.224V385.648L419.687 370.64V367.224H423.887V395H419.687V377.08L410.895 392.088V395H406.695V367.224H410.895ZM438.988 367.224C440.369 367.224 441.527 367.411 442.46 367.784C443.431 368.12 444.196 368.587 444.756 369.184C445.353 369.744 445.783 370.416 446.044 371.2C446.305 371.947 446.436 372.712 446.436 373.496V375.176C446.436 376.595 446.175 377.771 445.652 378.704C445.129 379.6 444.159 380.309 442.74 380.832C444.383 381.243 445.447 381.952 445.932 382.96C446.455 383.931 446.716 385.069 446.716 386.376V388.504C446.716 389.811 446.455 390.893 445.932 391.752C445.409 392.573 444.737 393.227 443.916 393.712C443.095 394.197 442.199 394.533 441.228 394.72C440.295 394.907 439.417 395 438.596 395H430.812V367.224H438.988ZM435.012 391.472H438.54C439.623 391.472 440.556 391.211 441.34 390.688C442.124 390.165 442.516 389.251 442.516 387.944V386.544C442.516 385.051 442.105 384.005 441.284 383.408C440.463 382.773 439.548 382.456 438.54 382.456H435.012V391.472ZM435.012 379.376H438.428C439.585 379.376 440.5 379.021 441.172 378.312C441.881 377.603 442.236 376.688 442.236 375.568V374.112C442.236 373.365 442.087 372.768 441.788 372.32C441.489 371.872 441.135 371.536 440.724 371.312C440.313 371.088 439.884 370.939 439.436 370.864C439.025 370.789 438.689 370.752 438.428 370.752H435.012V379.376ZM464.66 392.256H464.604C464.268 392.667 463.914 393.059 463.54 393.432C463.167 393.805 462.738 394.141 462.252 394.44C461.767 394.739 461.207 394.981 460.572 395.168C459.975 395.355 459.228 395.448 458.332 395.448C457.212 395.448 456.279 395.261 455.532 394.888C454.823 394.477 454.244 393.917 453.796 393.208C453.386 392.499 453.087 391.677 452.9 390.744C452.714 389.811 452.62 388.784 452.62 387.664C452.62 386.208 452.751 384.92 453.012 383.8C453.274 382.643 453.722 381.672 454.356 380.888C454.991 380.104 455.812 379.507 456.82 379.096C457.866 378.685 459.172 378.48 460.74 378.48C461.039 378.48 461.468 378.499 462.028 378.536C462.588 378.536 463.466 378.592 464.66 378.704V374.616C464.66 374.243 464.586 373.832 464.436 373.384C464.287 372.936 464.044 372.525 463.708 372.152C463.41 371.779 463.018 371.48 462.532 371.256C462.047 370.995 461.45 370.864 460.74 370.864C460.367 370.864 459.975 370.92 459.564 371.032C459.191 371.107 458.818 371.275 458.444 371.536C458.108 371.797 457.791 372.152 457.492 372.6C457.231 373.048 457.044 373.608 456.932 374.28H452.9C452.9 373.123 453.106 372.077 453.516 371.144C453.964 370.211 454.543 369.427 455.252 368.792C455.999 368.12 456.858 367.616 457.828 367.28C458.836 366.944 459.9 366.776 461.02 366.776C462.626 366.776 463.932 367.056 464.94 367.616C465.986 368.139 466.788 368.811 467.348 369.632C467.946 370.416 468.338 371.312 468.524 372.32C468.748 373.291 468.86 374.224 468.86 375.12V395H464.66V392.256ZM464.66 381.784C464.063 381.709 463.522 381.653 463.036 381.616C462.551 381.541 462.14 381.504 461.804 381.504C461.207 381.504 460.61 381.597 460.012 381.784C459.415 381.933 458.874 382.232 458.388 382.68C457.94 383.091 457.567 383.651 457.268 384.36C456.97 385.032 456.82 385.872 456.82 386.88C456.82 388.859 457.119 390.184 457.716 390.856C458.314 391.528 459.21 391.864 460.404 391.864C460.852 391.864 461.319 391.733 461.804 391.472C462.29 391.211 462.738 390.837 463.148 390.352C463.596 389.867 463.951 389.325 464.212 388.728C464.511 388.093 464.66 387.403 464.66 386.656V381.784ZM484.892 382.68H480.02V395H475.82V367.224H480.02V379.096H484.892V374.616C484.892 374.093 484.985 373.403 485.172 372.544C485.358 371.648 485.732 370.771 486.292 369.912C486.852 369.053 487.654 368.325 488.7 367.728C489.745 367.093 491.126 366.776 492.844 366.776C494.561 366.776 495.942 367.093 496.988 367.728C498.033 368.325 498.836 369.053 499.396 369.912C499.993 370.771 500.385 371.648 500.572 372.544C500.758 373.403 500.852 374.075 500.852 374.56V387.496C500.852 388.056 500.758 388.784 500.572 389.68C500.385 390.576 499.993 391.453 499.396 392.312C498.836 393.171 498.033 393.917 496.988 394.552C495.942 395.149 494.561 395.448 492.844 395.448C491.126 395.448 489.745 395.149 488.7 394.552C487.654 393.917 486.852 393.171 486.292 392.312C485.732 391.453 485.358 390.576 485.172 389.68C484.985 388.784 484.892 388.056 484.892 387.496V382.68ZM496.652 375.4C496.652 373.832 496.278 372.693 495.532 371.984C494.785 371.237 493.889 370.864 492.844 370.864C491.798 370.864 490.902 371.237 490.156 371.984C489.409 372.693 489.036 373.832 489.036 375.4V386.824C489.036 388.28 489.353 389.4 489.988 390.184C490.66 390.968 491.612 391.36 492.844 391.36C494.038 391.36 494.972 390.987 495.644 390.24C496.316 389.493 496.652 388.355 496.652 386.824V375.4ZM515.209 370.752V395H511.009V370.752H505.129V367.224H521.089V370.752H515.209ZM546.272 370.752V395H542.072V370.752H536.192V367.224H552.152V370.752H546.272ZM567.363 392.256H567.307C566.971 392.667 566.617 393.059 566.243 393.432C565.87 393.805 565.441 394.141 564.955 394.44C564.47 394.739 563.91 394.981 563.275 395.168C562.678 395.355 561.931 395.448 561.035 395.448C559.915 395.448 558.982 395.261 558.235 394.888C557.526 394.477 556.947 393.917 556.499 393.208C556.089 392.499 555.79 391.677 555.603 390.744C555.417 389.811 555.323 388.784 555.323 387.664C555.323 386.208 555.454 384.92 555.715 383.8C555.977 382.643 556.425 381.672 557.059 380.888C557.694 380.104 558.515 379.507 559.523 379.096C560.569 378.685 561.875 378.48 563.443 378.48C563.742 378.48 564.171 378.499 564.731 378.536C565.291 378.536 566.169 378.592 567.363 378.704V374.616C567.363 374.243 567.289 373.832 567.139 373.384C566.99 372.936 566.747 372.525 566.411 372.152C566.113 371.779 565.721 371.48 565.235 371.256C564.75 370.995 564.153 370.864 563.443 370.864C563.07 370.864 562.678 370.92 562.267 371.032C561.894 371.107 561.521 371.275 561.147 371.536C560.811 371.797 560.494 372.152 560.195 372.6C559.934 373.048 559.747 373.608 559.635 374.28H555.603C555.603 373.123 555.809 372.077 556.219 371.144C556.667 370.211 557.246 369.427 557.955 368.792C558.702 368.12 559.561 367.616 560.531 367.28C561.539 366.944 562.603 366.776 563.723 366.776C565.329 366.776 566.635 367.056 567.643 367.616C568.689 368.139 569.491 368.811 570.051 369.632C570.649 370.416 571.041 371.312 571.227 372.32C571.451 373.291 571.563 374.224 571.563 375.12V395H567.363V392.256ZM567.363 381.784C566.766 381.709 566.225 381.653 565.739 381.616C565.254 381.541 564.843 381.504 564.507 381.504C563.91 381.504 563.313 381.597 562.715 381.784C562.118 381.933 561.577 382.232 561.091 382.68C560.643 383.091 560.27 383.651 559.971 384.36C559.673 385.032 559.523 385.872 559.523 386.88C559.523 388.859 559.822 390.184 560.419 390.856C561.017 391.528 561.913 391.864 563.107 391.864C563.555 391.864 564.022 391.733 564.507 391.472C564.993 391.211 565.441 390.837 565.851 390.352C566.299 389.867 566.654 389.325 566.915 388.728C567.214 388.093 567.363 387.403 567.363 386.656V381.784ZM578.523 367.224H582.723V379.096H590.339V367.224H594.539V395H590.339V382.68H582.723V395H578.523V367.224ZM612.916 387.216H617.116V387.608C617.116 388.28 617.004 389.083 616.78 390.016C616.593 390.912 616.22 391.771 615.66 392.592C615.1 393.376 614.316 394.048 613.308 394.608C612.3 395.168 610.993 395.448 609.388 395.448C607.633 395.448 606.233 395.149 605.188 394.552C604.142 393.917 603.321 393.171 602.724 392.312C602.126 391.453 601.734 390.576 601.548 389.68C601.361 388.747 601.268 387.981 601.268 387.384V374.504C601.268 373.944 601.361 373.235 601.548 372.376C601.734 371.517 602.108 370.677 602.668 369.856C603.228 368.997 604.012 368.269 605.02 367.672C606.065 367.075 607.428 366.776 609.108 366.776C610.75 366.776 612.094 367.075 613.14 367.672C614.222 368.269 615.062 368.997 615.66 369.856C616.257 370.677 616.668 371.555 616.892 372.488C617.116 373.384 617.228 374.131 617.228 374.728V382.68H605.468V387.104C605.468 388.597 605.785 389.68 606.42 390.352C607.092 391.024 608.081 391.36 609.388 391.36C610.62 391.36 611.516 391.024 612.076 390.352C612.636 389.643 612.916 388.709 612.916 387.552V387.216ZM613.028 379.544V374.784C613.028 374.336 612.972 373.888 612.86 373.44C612.748 372.955 612.542 372.525 612.244 372.152C611.945 371.779 611.553 371.48 611.068 371.256C610.582 370.995 609.985 370.864 609.276 370.864C608.529 370.864 607.913 370.995 607.428 371.256C606.942 371.517 606.55 371.853 606.252 372.264C605.953 372.675 605.748 373.123 605.636 373.608C605.524 374.093 605.468 374.56 605.468 375.008V379.544H613.028ZM623.749 367.224H627.949V391.472H635.509V367.224H639.709V391.472H643.349V400.824H639.429V395H623.749V367.224ZM652.406 390.24V395H647.59V390.24H652.406Z" fill="white"/>
</svg>
