<svg width="749" height="981" viewBox="0 0 749 981" fill="none" xmlns="http://www.w3.org/2000/svg">
<path d="M247.918 544.728L378.088 129.517L501.334 544.728H247.918Z" fill="#FD5B7D"/>
<path d="M266.924 749.897L239.633 549.601L357.082 544.728L320.044 749.897V979.433L294.702 958.964L266.924 979.433V749.897Z" fill="#FD5B7D"/>
<path d="M494.024 749.897L518.39 544.728H403.866L440.904 749.897V979.433L467.707 959.939L494.024 979.433V749.897Z" fill="#FD5B7D"/>
<circle cx="380.961" cy="141.699" r="104.778" fill="#FD5B7D"/>
<path d="M610.985 334.198L403.866 262.072L459.91 385.368H610.985L746.952 356.128L717.224 340.046L727.946 309.831L610.985 334.198Z" fill="#FD5B7D"/>
<path d="M138.267 334.198L345.386 262.072L289.342 385.368H138.267L2.30008 356.128L32.0277 340.046L21.3062 309.831L138.267 334.198Z" fill="#FD5B7D"/>
<path d="M41.2869 364.412L55.9071 317.141L21.3061 309.343L32.0275 340.046L2.29993 356.128L41.2869 364.412Z" fill="white" stroke="white"/>
<path d="M703.092 365.874L686.035 319.09L727.946 309.831L717.225 340.533L746.952 355.64L703.092 365.874Z" fill="white" stroke="white"/>
<path d="M319.557 944.831H267.412H266.924V979.432L294.215 959.451L319.557 979.92V944.831Z" fill="white" stroke="white"/>
<path d="M493.536 946.781H441.391V978.458L468.195 960.426L493.536 978.458V946.781Z" fill="white" stroke="white"/>
<circle cx="345.386" cy="112.946" r="16.5695" fill="white"/>
<circle cx="413.613" cy="112.946" r="16.5695" fill="white"/>
<ellipse cx="380.961" cy="184.098" rx="46.2971" ry="34.1136" fill="white"/>
<circle cx="366.828" cy="187.997" r="7.7974" fill="#003DE3"/>
<circle cx="345.386" cy="112.946" r="7.7974" fill="#003DE3"/>
<circle cx="413.613" cy="112.946" r="7.7974" fill="#003DE3"/>
<circle cx="398.018" cy="187.997" r="7.7974" fill="#003DE3"/>
<path d="M287.88 8.30678L312.247 87.605L361.955 52.1179L318.095 0.858887L312.247 23.6407L287.88 8.30678Z" fill="#FD5B7D"/>
<path d="M471.119 11.2316L446.752 90.5298L397.043 55.0427L440.904 3.78369L446.752 26.5655L471.119 11.2316Z" fill="#FD5B7D"/>
<path d="M317.582 68.5257L316.528 31.543L343.947 52.7848L317.582 68.5257Z" fill="white"/>
<path d="M444.496 68.5811L444.727 31.5841L417.788 53.4306L444.496 68.5811Z" fill="white"/>
<path d="M377.063 357.442L303.962 301.059L242.557 529.723L99.7675 572.532L219.653 602.812L203.57 714.534L319.557 650.32L388.271 740.637L452.113 650.32L561.763 708.473L539.346 602.812L663.13 572.532L502.308 524.259L444.802 301.059L377.063 357.442Z" fill="#55C9BB" stroke="#55C9BB"/>
</svg>
