<svg width="1054" height="1116" viewBox="0 0 1054 1116" fill="none" xmlns="http://www.w3.org/2000/svg">
<path d="M780.317 -0.95325L549.185 460.741L330.346 -0.953213L780.317 -0.95325Z" fill="#FD5B7D"/>
<ellipse cx="544.083" cy="439.448" rx="186.031" ry="189.538" transform="rotate(180 544.083 439.448)" fill="#FD5B7D"/>
<ellipse cx="607.247" cy="491.459" rx="29.4188" ry="29.9734" transform="rotate(180 607.247 491.459)" fill="white"/>
<ellipse cx="486.111" cy="491.459" rx="29.4188" ry="29.9734" transform="rotate(180 486.111 491.459)" fill="white"/>
<ellipse cx="544.083" cy="362.752" rx="82.1995" ry="61.71" transform="rotate(180 544.083 362.752)" fill="white"/>
<ellipse cx="569.176" cy="355.699" rx="13.8441" ry="14.1051" transform="rotate(180 569.176 355.699)" fill="#003DE3"/>
<ellipse cx="607.247" cy="491.461" rx="13.8441" ry="14.1051" transform="rotate(180 607.247 491.461)" fill="#003DE3"/>
<ellipse cx="486.111" cy="491.461" rx="13.8441" ry="14.1051" transform="rotate(180 486.111 491.461)" fill="#003DE3"/>
<ellipse cx="513.799" cy="355.699" rx="13.8441" ry="14.1051" transform="rotate(180 513.799 355.699)" fill="#003DE3"/>
<path d="M709.348 680.75L666.085 537.303L577.829 601.497L655.702 694.223L666.085 653.011L709.348 680.75Z" fill="#FD5B7D"/>
<path d="M384.011 675.459L427.274 532.013L515.53 596.207L437.657 688.932L427.274 647.721L384.011 675.459Z" fill="#FD5B7D"/>
<path d="M656.612 571.816L658.483 638.716L609.802 600.29L656.612 571.816Z" fill="white"/>
<path d="M431.278 571.716L430.868 638.641L478.698 599.122L431.278 571.716Z" fill="white"/>
</svg>
